<svg xmlns="http://www.w3.org/2000/svg" width="1600" height="1200" viewBox="0 0 1600 1200">
  <metadata><?xpacket begin="﻿" id="W5M0MpCehiHzreSzNTczkc9d"?>
<x:xmpmeta xmlns:x="adobe:ns:meta/" x:xmptk="Adobe XMP Core 5.6-c138 79.159824, 2016/09/14-01:09:01        ">
   <rdf:RDF xmlns:rdf="http://www.w3.org/1999/02/22-rdf-syntax-ns#">
      <rdf:Description rdf:about=""/>
   </rdf:RDF>
</x:xmpmeta>
                                                                                                    
                                                                                                    
                                                                                                    
                                                                                                    
                                                                                                    
                                                                                                    
                                                                                                    
                                                                                                    
                                                                                                    
                                                                                                    
                                                                                                    
                                                                                                    
                                                                                                    
                                                                                                    
                                                                                                    
                                                                                                    
                                                                                                    
                                                                                                    
                                                                                                    
                                                                                                    
                           
<?xpacket end="w"?></metadata>
<defs>
    <style>
      .cls-1 {
        fill: #fff;
        fill-rule: evenodd;
      }
    </style>
  </defs>
  <path class="cls-1" d="M831,173c15.259,7.077,60.852,96.667,71,118,53.964,113.449,105.44,235.148,136,371,4.31,19.14,12.47,52.063,4,71-18.41,41.151-91.4,48-151,48-14.766,0-33.367,1.507-45-2q9.5-43,19-86c14.409-66.61,10.924-189.723,12-183q-0.5-31-1-62c-8.719-53.895-9.575-108.656-20-160C848.153,249.354,834.368,214.06,831,173ZM821,276c13.679,21.766,2.8,102.944,8,137q6,182.982,12,366c-16,6.022-49.137,2.868-65-1-45.711-11.145-116.98-38.946-137-74,59.5-89.994,121.028-179.8,157-294,9.8-31.1,16.627-63.026,23-97Q820,294.5,821,276ZM153,746v-5l61-22c16.811-5.592,36.5-5.15,57-8,37.058-5.151,78.413,8.482,106,17,53.78,16.605,98.673,34.748,147,57,31.716,14.6,68.047,38.175,105,45l-5-6c-25.486-10.2-47.474-35.223-69-51-47.545-34.847-95.208-71.954-149-100-40.9-21.327-87.472-39.708-138-50-17.637-3.592-61.81,2.41-73-2v-1c30.763-5.147,61.083-14.168,94-20,57.252-10.144,140.694,29.083,173,48,101.958,59.7,192.449,132.326,314,170,60.019,18.6,142.839,11.656,201-3,91.12-22.962,163.13-48.724,228-96,31.51-22.965,57.26-53.2,88-76h1c-4.93,19.266-34.87,46.426-47,62-31.92,40.983-67.02,81.011-105,116q-31.5,27.5-63,55c13.91-1.328,27.69-6.882,39-11,58.14-21.159,109.34-39.352,162-63q19.005-10,38-20v1c-9.67,12.253-26.19,19.857-39,29-35.61,25.417-71.05,48.884-110,72-45.4,26.941-96.35,49.2-152,66-31.261,9.439-65.728,13.537-100,20-100.873,19.023-199.136-10.139-266-39C490.594,861.762,381,730.442,153,746Z"/>
</svg>
