<svg xmlns="http://www.w3.org/2000/svg" viewBox="0 0 349.35 213.6"><defs><style>.cls-1{fill:#1b9db3;}.cls-2{isolation:isolate;font-size:3.5px;font-family:Tahoma;}.cls-2,.cls-7{fill:#fff;}.cls-3,.cls-4{fill:none;}.cls-3,.cls-4,.cls-5{stroke:#fff;}.cls-4{stroke-miterlimit:10;}.cls-6{fill:#020304;}.cls-10,.cls-7{font-size:2px;font-family:MyriadPro-Regular, Myriad Pro;}.cls-8{letter-spacing:-0.01em;}.cls-9{letter-spacing:-0.01em;}.cls-11{letter-spacing:-0.03em;}.cls-12{letter-spacing:-0.01em;}</style></defs><title>europe-mapcity</title><g id="map"><g id="Countries"><polygon points="98.71 9.03 98.44 8.64 97.63 8.85 97.45 8.81 96.82 9.1 96.53 9.54 96.75 9.94 97.85 10.4 98.74 10.41 99.6 9.69 99.58 9.42 98.71 9.03"/><polygon points="98.71 9.03 98.44 8.64 97.63 8.85 97.45 8.81 96.82 9.1 96.53 9.54 96.75 9.94 97.85 10.4 98.74 10.41 99.6 9.69 99.58 9.42 98.71 9.03"/><path d="M144.88,1.16c-15.27.57-30.54,1-45.8-.14L98.55,1l-.18.23L92.28,5.74l-1.22.94-1.43.54-1.19.61L87.24,9l.37.57.66-.95.63-.23.89.66.44.7.82-.07-.08.1.41.61.7-.47.7-1.22,1.84-.58,1.21-1.41,1.23.22L98.32,7l1,.27.84.16,2,1,.7.59.77.35.32,0,1.24-1.08L106.47,5l.46-.13.28.16.81.16,1.62-.46,1.79-.16.64-.23,1.31,1.78.39.79.32.57.16.13V7.46l.53-.63,1.47-.13,1.37.71.89-.26L118.23,6l1.74.26,2,.24.54-.37,1.06-.33.27-.68.07-.83.82.81,1,.42h1.21l.32.53.71.77,4.52-.22,1.22,0,1.63.69L137,7.19l2.74-.48,1.79-.24,1.12-.37.29-.5,1.89-1,1.55-1L146.94,2l-.32-.63Z" transform="translate(-26.25 2.18)"/><path d="M144.88,1.16c-15.27.57-30.54,1-45.8-.14L98.55,1l-.18.23L92.28,5.74l-1.22.94-1.43.54-1.19.61L87.24,9l.37.57.66-.95.63-.23.89.66.44.7.82-.07-.08.1.41.61.7-.47.7-1.22,1.84-.58,1.21-1.41,1.23.22L98.32,7l1,.27.84.16,2,1,.7.59.77.35.32,0,1.24-1.08L106.47,5l.46-.13.28.16.81.16,1.62-.46,1.79-.16.64-.23,1.31,1.78.39.79.32.57.16.13V7.46l.53-.63,1.47-.13,1.37.71.89-.26L118.23,6l1.74.26,2,.24.54-.37,1.06-.33.27-.68.07-.83.82.81,1,.42h1.21l.32.53.71.77,4.52-.22,1.22,0,1.63.69L137,7.19l2.74-.48,1.79-.24,1.12-.37.29-.5,1.89-1,1.55-1L146.94,2l-.32-.63Z" transform="translate(-26.25 2.18)"/><path d="M374.86,36.67l-1.26.75-3.06,4.37-2,4.49,1,3.84,2.16-1,1.21-1,1.27-.27a88.69,88.69,0,0,1,.69-11.16Z" transform="translate(-26.25 2.18)"/><path d="M374.25,20.12c.19-6.59-.33-12.89.13-19.36-8.12.28-16.28,0-24.41,0C338.35.69,326.74.44,315.12.2L315,.82l-2,2.64-2.34,2.36-1.51,3-1.4,5.83.19,2.14.68,1.71-1.4.57-.69-.08.08,1L306,23.15,305.62,26l0,1.3-.08.7,2.36.73,1.92,1,1.46.95.91,1.45,1-.64L315.6,31l2.68-.15,3.55-.48,2.07-1.09,2.19-.58,1.91,1,1.6.47,2-2.16,2.2-1.19,2.4-.68L340.34,22l2-.48L347,23.88l3.47-2.05,3.62.72L357,19.42l8.85,2.5,2.58,4.36L370,30.56l3.52,2.24.68,1.44C373.34,29.66,374.12,24.82,374.25,20.12Z" transform="translate(-26.25 2.18)"/><path d="M374.86,36.67l-1.26.75-3.06,4.37-2,4.49,1,3.84,2.16-1,1.21-1,1.27-.27a88.69,88.69,0,0,1,.69-11.16Z" transform="translate(-26.25 2.18)"/><path d="M374.25,20.12c.19-6.59-.33-12.89.13-19.36-8.12.28-16.28,0-24.41,0C338.35.69,326.74.44,315.12.2L315,.82l-2,2.64-2.34,2.36-1.51,3-1.4,5.83.19,2.14.68,1.71-1.4.57-.69-.08.08,1L306,23.15,305.62,26l0,1.3-.08.7,2.36.73,1.92,1,1.46.95.91,1.45,1-.64L315.6,31l2.68-.15,3.55-.48,2.07-1.09,2.19-.58,1.91,1,1.6.47,2-2.16,2.2-1.19,2.4-.68L340.34,22l2-.48L347,23.88l3.47-2.05,3.62.72L357,19.42l8.85,2.5,2.58,4.36L370,30.56l3.52,2.24.68,1.44C373.34,29.66,374.12,24.82,374.25,20.12Z" transform="translate(-26.25 2.18)"/><path d="M375.33,149.29c0-1.36.07-2.73.1-4.09-.12-11.94.17-23.94.17-35.82a4.73,4.73,0,0,0-1.54.2c-2.74.55-2.61,5.45-4.73,4.65-1.16-.45-3.63.9-5,1l-3,3.61,1,1.32c-.39-.24-.78-.48-1.18-.71-.68.9.73.87-.78,1.26-.16,2.15,4.26-2.57,5.61.76a6.08,6.08,0,0,0-2.34,2.64c1.5,2.24,2.53,2.28,1.72,4.7l1.9,0,.65.78c-.84,1.13-1.16,2-2.91,2.44,0,.39-.07.78-.11,1.17,1.09.44,1,.31,1.33,1.85a3.81,3.81,0,0,0,2.7-.07c-.48,2.5-3.42,1.48-4.51,2.64-1.2-1.08-.87-2.77-1.87-3.81-.54-.69-.14-.38-.91-.74l-.27,0c-.22,2.37.78,2.17,1.08,3.91a2.75,2.75,0,0,1-1.78.83,2.7,2.7,0,0,0,0,.28l2.7,2,.9-1.28a22.64,22.64,0,0,1,6.43,3.48c0,.86.05,1.73.08,2.6l-2,1.43,1.4.39c.06,1.06.11,2.11.16,3.17.12.18.23.36.35.53l1.51-.78c1.35.92,1.14,1.59,2.4,1.7-.24.9-.48,1.81-.71,2.71l-2-.89c-.22.33-.45.65-.68,1,0,.3-.09.59-.14.89a2.89,2.89,0,0,0,0,.29,14.46,14.46,0,0,1,3.65-.46C375,153,375.14,151.14,375.33,149.29Z" transform="translate(-26.25 2.18)"/><path d="M374.53,105c-.2-3.88.19-7.74.26-11.61L374,93l-1.22.36-1.64.58-2.25,1-3.23-1-1.92,1.64-3.21,1.73-.85,1.11,1.13.78,1.35.92.09,2.11-1.24,2,.19,5.16-.87,2,1.85-.47,1.34-.22,2.14.09-1,1-2.05.68-1.49.89-.19.9,0,2,1.06-.43,1-1.53,1.31-1L366,112.1l1.81-1.12,2.48-2.48,1.19-2.32,2.59-1.07.45-.09Z" transform="translate(-26.25 2.18)"/><path d="M374.53,105c-.2-3.88.19-7.74.26-11.61L374,93l-1.22.36-1.64.58-2.25,1-3.23-1-1.92,1.64-3.21,1.73-.85,1.11,1.13.78,1.35.92.09,2.11-1.24,2,.19,5.16-.87,2,1.85-.47,1.34-.22,2.14.09-1,1-2.05.68-1.49.89-.19.9,0,2,1.06-.43,1-1.53,1.31-1L366,112.1l1.81-1.12,2.48-2.48,1.19-2.32,2.59-1.07.45-.09Z" transform="translate(-26.25 2.18)"/><polygon points="163.1 49.59 163.25 49.66 164.18 50.49 165.38 50.25 167.52 50.06 169.42 49.95 173.2 49.18 174.61 49.44 176.21 50 177.96 50.75 178.78 51.24 179.11 52.52 180.51 53.1 181.02 54.49 180.42 56.24 181.97 57.21 182.51 58.13 184.4 58.53 185.5 57.79 186.23 58.28 186.7 58.6 186.39 59.41 186.24 60.25 186.42 61.34 185.77 61.78 184.09 61.93 183.84 62.87 184.02 64.01 184.49 64.88 184.24 65.52 181.12 64.96 179.34 64.87 178.4 64.03 177.31 63.52 176.9 65.16 175.39 68.14 174.99 69.62 174.66 70.28 173.6 69.6 172.64 68.38 170.93 67.15 170.19 65.06 170.06 64.16 168.36 65.05 167.38 66.21 167.42 67.6 166.79 68.34 165.7 69.13 165.14 69.73 163.14 69.61 162.38 69.73 161.94 69.77 160.5 70.14 159.37 70.46 157.99 70.5 157.93 69.59 157.62 68.84 156.54 68.49 156.46 67.64 156.22 66.72 156.18 65.37 156.31 64.28 155.81 64.02 154.36 63.84 153.11 63.86 152.14 65.08 151.42 66.39 150.32 67.02 149.81 66.62 150.03 64.74 150.15 63.18 150.74 61.39 151.38 60.86 151.99 59.89 153.02 59.33 153.79 57.41 154.68 56.12 155.52 55.35 157.06 53.58 158.06 52.75 158.26 52.48 157.75 51.61 158.44 50.64 159.28 50.87 160.98 50.94 162.02 50.46 163.1 49.59"/><polygon points="163.1 49.59 163.25 49.66 164.18 50.49 165.38 50.25 167.52 50.06 169.42 49.95 173.2 49.18 174.61 49.44 176.21 50 177.96 50.75 178.78 51.24 179.11 52.52 180.51 53.1 181.02 54.49 180.42 56.24 181.97 57.21 182.51 58.13 184.4 58.53 185.5 57.79 186.23 58.28 186.7 58.6 186.39 59.41 186.24 60.25 186.42 61.34 185.77 61.78 184.09 61.93 183.84 62.87 184.02 64.01 184.49 64.88 184.24 65.52 181.12 64.96 179.34 64.87 178.4 64.03 177.31 63.52 176.9 65.16 175.39 68.14 174.99 69.62 174.66 70.28 173.6 69.6 172.64 68.38 170.93 67.15 170.19 65.06 170.06 64.16 168.36 65.05 167.38 66.21 167.42 67.6 166.79 68.34 165.7 69.13 165.14 69.73 163.14 69.61 162.38 69.73 161.94 69.77 160.5 70.14 159.37 70.46 157.99 70.5 157.93 69.59 157.62 68.84 156.54 68.49 156.46 67.64 156.22 66.72 156.18 65.37 156.31 64.28 155.81 64.02 154.36 63.84 153.11 63.86 152.14 65.08 151.42 66.39 150.32 67.02 149.81 66.62 150.03 64.74 150.15 63.18 150.74 61.39 151.38 60.86 151.99 59.89 153.02 59.33 153.79 57.41 154.68 56.12 155.52 55.35 157.06 53.58 158.06 52.75 158.26 52.48 157.75 51.61 158.44 50.64 159.28 50.87 160.98 50.94 162.02 50.46 163.1 49.59"/><polygon points="80.39 93.98 80.54 94.74 81.71 95.8 82.65 97.02 83.68 98.01 84.99 99.03 86.73 99.66 88.39 100.98 89.33 102.11 93.94 103.87 96.58 105.02 98.99 105.59 100.06 105.58 101.91 104.56 103.37 104.43 104.67 105.09 106.88 106.89 107.85 108.13 108.24 109.15 109.34 109.39 110.07 109.16 109.86 108.4 111.47 109.95 112.75 110.45 115.11 110.49 117.42 110.59 119.64 110.4 121.9 110.5 122.92 110.8 123.44 111.47 123.93 111.71 124.11 112.68 123.09 113.46 122.93 114.71 123.37 116.23 121.7 118.05 118.56 119.79 115.07 121.4 112.63 123.25 109.59 123.96 105.78 124.98 102.23 125.84 99.96 128.12 99.83 129.21 98.17 130.44 95.82 132.72 92.6 136.99 90.59 138.77 88.61 140.79 87.71 142.87 87.24 143.52 87.05 143.78 87 144.23 87.56 145.21 87.64 147.03 87.87 148.17 88.61 149.27 89.49 149.88 90.83 150.37 91.32 151.47 90.31 152.88 87.81 154.4 86.02 155.17 84.68 156.28 83.64 157.67 82.58 158.85 81.97 160.45 80.92 161.7 80.27 163.15 80.44 164.18 78.76 164.27 76.67 164.15 74.69 164.24 70.51 166.82 69.82 168.35 68.87 169.9 67.91 171.2 66.75 172.16 65.31 172.21 63.16 171.4 60.28 172.04 57.94 171.55 55.21 170.41 52.22 170.36 49.99 169.62 46.76 169.37 44.99 169.36 43.29 169.21 40.81 170.97 38.49 170.71 36.29 171.15 34.41 172.45 33.63 173.37 32.64 174.07 32.16 174.03 31.72 174.31 31.04 174.43 30.1 174.13 28.09 173.3 26.23 171.39 25.36 169.39 24.85 167.99 24.97 166.52 23.91 165.14 24.14 163.35 23.78 161.78 22.48 160.2 20.18 158.24 18.96 157.58 17.55 157.31 15.05 156.92 15.11 155.62 15.12 153.84 15.39 151.96 17.18 150.59 20.09 149.25 21.59 148.04 21.5 146.06 20.31 143.92 20.16 141.55 20.82 139.28 22.52 137.5 23.54 136.19 23.31 135.13 23.13 134.98 21.92 131.63 22.07 128.93 23.78 128.17 25.68 128.09 27.79 126.57 28.26 125.01 27.49 123.08 27.76 121.81 29.35 119.68 30.29 117.44 30.73 115.24 31.33 113.58 33.47 112.32 35.72 110.9 37.48 108.89 37.81 107.56 36.84 105.96 36.29 104.07 33.78 102.99 31.12 102.3 28.7 102.82 26.26 102.12 24.91 101.55 22.73 101.35 21.73 100.28 21.98 98.79 21.99 98.26 19.68 98.16 17.11 98.44 15.29 99.76 15.05 98.95 15.39 97.45 16.45 95.67 17.9 94.55 16.42 94.34 17.31 93.13 16 92.08 17.61 90.25 16.83 90.16 15.89 89.24 16.47 87.97 15.54 86.81 14.54 85.21 15.84 83.32 18.01 82.52 19.91 82.44 22.9 83.04 24.43 82.13 24.64 81.03 26.07 79.66 28.28 79.63 29.92 79.71 31.37 80.44 33.51 82.11 36.39 83.38 39.67 84.17 42.96 84.74 44.77 84.25 46.6 84.95 49.41 86.39 51.14 86.85 52.9 87.69 56.26 89.03 59.01 89.79 62.12 90.21 64.35 90.01 66.03 90.86 69.05 91.9 70.51 92.08 73.86 92.47 75.96 93.62 78.86 94.2 80.39 93.98"/><polygon points="104.11 148.91 104.34 149.03 104.49 148.88 104.75 150.24 103.62 151.25 102.8 151.71 101.65 150.89 102.4 149.67 104.11 148.91"/><polygon points="104.11 148.91 104.34 149.03 104.49 148.88 104.75 150.24 103.62 151.25 102.8 151.71 101.65 150.89 102.4 149.67 104.11 148.91"/><polygon points="130.85 140.09 131.02 140.07 131.12 140.62 131.15 141.61 131.12 142.14 130.2 142.09 128.66 141.36 127.47 140 128.25 139.4 129.8 139.43 130.42 139.6 130.85 140.09"/><polygon points="130.85 140.09 131.02 140.07 131.12 140.62 131.15 141.61 131.12 142.14 130.2 142.09 128.66 141.36 127.47 140 128.25 139.4 129.8 139.43 130.42 139.6 130.85 140.09"/><polygon points="121.17 140.19 121.12 140.5 121.07 140.64 120.61 141.68 120.67 142.36 122.15 142.49 122.89 143.94 121.88 146.36 119.79 148.14 117.16 146.22 116.65 144.88 115.35 144.85 114.31 145.25 113.36 143.94 115.2 142.15 118.08 140.9 120.02 140.34 121.06 139.87 121.31 139.84 121.17 140.19"/><polygon points="121.17 140.19 121.12 140.5 121.07 140.64 120.61 141.68 120.67 142.36 122.15 142.49 122.89 143.94 121.88 146.36 119.79 148.14 117.16 146.22 116.65 144.88 115.35 144.85 114.31 145.25 113.36 143.94 115.2 142.15 118.08 140.9 120.02 140.34 121.06 139.87 121.31 139.84 121.17 140.19"/><polygon points="214 75.62 216.51 74.24 219.15 74.11 223.85 74.47 226.29 74.97 231.26 69.03 232.95 64.9 236.22 63.09 239.15 63.57 241.99 62.4 240.11 60.24 238.29 59.63 236.74 57.77 235.66 55.87 234.54 55.44 233.44 55.45 232.26 56.25 232.26 56.86 232.06 57.43 231.76 57.46 230.91 57.28 229.45 57.35 228.85 57.46 228.2 58.84 227.33 58.76 226.62 58.51 225.23 58.47 224.5 58.62 223.22 59.2 222.59 59.95 222.06 60.82 221.29 61.53 220.92 61.78 219.77 61.88 218.85 61.8 216.46 61.64 213.9 61.84 213.05 62.61 212.42 63.35 212.06 64.55 212.12 65.24 212.53 65.5 213.12 65.29 213.37 65.27 212.99 66.32 212.97 67.63 213.39 68.36 213.73 68.47 213.84 69.71 214.23 70.03 214.94 70.31 215.43 70.48 215.88 71.22 216.43 71.48 216.87 72.13 216.71 72.75 216.23 73.27 215.39 73.48 214.77 73.09 213.64 74.1 214 75.62"/><polygon points="214 75.62 216.51 74.24 219.15 74.11 223.85 74.47 226.29 74.97 231.26 69.03 232.95 64.9 236.22 63.09 239.15 63.57 241.99 62.4 240.11 60.24 238.29 59.63 236.74 57.77 235.66 55.87 234.54 55.44 233.44 55.45 232.26 56.25 232.26 56.86 232.06 57.43 231.76 57.46 230.91 57.28 229.45 57.35 228.85 57.46 228.2 58.84 227.33 58.76 226.62 58.51 225.23 58.47 224.5 58.62 223.22 59.2 222.59 59.95 222.06 60.82 221.29 61.53 220.92 61.78 219.77 61.88 218.85 61.8 216.46 61.64 213.9 61.84 213.05 62.61 212.42 63.35 212.06 64.55 212.12 65.24 212.53 65.5 213.12 65.29 213.37 65.27 212.99 66.32 212.97 67.63 213.39 68.36 213.73 68.47 213.84 69.71 214.23 70.03 214.94 70.31 215.43 70.48 215.88 71.22 216.43 71.48 216.87 72.13 216.71 72.75 216.23 73.27 215.39 73.48 214.77 73.09 213.64 74.1 214 75.62"/><polygon points="251.02 20.69 249.79 21.66 249.21 21.61 249.08 22.39 248.36 22.94 248.12 23.44 245.55 25.8 245.13 26.68 245.13 27.74 243.75 29.49 243.79 29.97 242.27 31.25 240.43 31.13 239.18 31.31 238.39 32.15 237.64 33.24 237.9 35.21 239.16 38.26 240.3 39.93 240.41 40.22 241.3 40.62 242.5 41.04 245.43 42.8 246.38 43.33 247.9 42.95 249.35 42.77 250.38 42.51 251.33 42.51 252.13 42.27 252.68 41.23 252.87 40.91 253.72 39.23 255.81 38.35 258 37.22 260.1 35.59 262.66 35.98 264.48 34.66 265.89 34.01 266.26 32.21 268.41 30.55 270.94 30.33 272.57 29.66 274.88 29.84 277.61 30.99 279.32 30.2 279.39 29.5 279.36 28.21 279.72 25.32 280.39 22.19 280.3 21.2 278.82 21.11 276.97 20.2 275.66 19.14 273.98 18.52 272 18.69 270.35 19.22 269.05 20.11 268.14 21.1 266.52 20.33 263.79 20.74 262.71 22.36 261.49 23.24 260.31 23.12 259.12 21.84 257.55 20.65 256.19 20.02 254.88 20.88 253.39 21.48 251.02 20.69"/><polygon points="251.02 20.69 249.79 21.66 249.21 21.61 249.08 22.39 248.36 22.94 248.12 23.44 245.55 25.8 245.13 26.68 245.13 27.74 243.75 29.49 243.79 29.97 242.27 31.25 240.43 31.13 239.18 31.31 238.39 32.15 237.64 33.24 237.9 35.21 239.16 38.26 240.3 39.93 240.41 40.22 241.3 40.62 242.5 41.04 245.43 42.8 246.38 43.33 247.9 42.95 249.35 42.77 250.38 42.51 251.33 42.51 252.13 42.27 252.68 41.23 252.87 40.91 253.72 39.23 255.81 38.35 258 37.22 260.1 35.59 262.66 35.98 264.48 34.66 265.89 34.01 266.26 32.21 268.41 30.55 270.94 30.33 272.57 29.66 274.88 29.84 277.61 30.99 279.32 30.2 279.39 29.5 279.36 28.21 279.72 25.32 280.39 22.19 280.3 21.2 278.82 21.11 276.97 20.2 275.66 19.14 273.98 18.52 272 18.69 270.35 19.22 269.05 20.11 268.14 21.1 266.52 20.33 263.79 20.74 262.71 22.36 261.49 23.24 260.31 23.12 259.12 21.84 257.55 20.65 256.19 20.02 254.88 20.88 253.39 21.48 251.02 20.69"/><path d="M324.36,89.67l-2.82-2.21-1.94-2-1-3.31-.21-3.36,2.48-1.74L319.24,77l-1.72-2.23,1.29-2-1.46-1.51L315.82,73l-2-.38-2.64-.37-2.75-1.37-.59-2.33-.65-1.41-1.35-.57-1.72-.1-1.77-1.84-1.15-2.67L300,60.36l-1.83-1.61-2.38-.62-.78-.41.44-.12-.54-.09-.84-.78-1.78.93-1.79.38-2.16,1.87-2.18.44-.91,1,.6,5,3.48,3.45,2.18,1.48,1.92-.27L293,72.8l-2,1.25-.09,6.61,3.49,4.47.8,2.53-1.09,2.63c3.27,1.12,5.46,3.84,8.2,4.94-2,1-.81,3-1,5l.08,0,2.09,1.8,1.79.55,2.52,2.29-1,1.08,3.93-.62,3-4.2,5.91-1,2.74-.71-.65-3.13,1.22-4.43Z" transform="translate(-26.25 2.18)"/><path d="M324.36,89.67l-2.82-2.21-1.94-2-1-3.31-.21-3.36,2.48-1.74L319.24,77l-1.72-2.23,1.29-2-1.46-1.51L315.82,73l-2-.38-2.64-.37-2.75-1.37-.59-2.33-.65-1.41-1.35-.57-1.72-.1-1.77-1.84-1.15-2.67L300,60.36l-1.83-1.61-2.38-.62-.78-.41.44-.12-.54-.09-.84-.78-1.78.93-1.79.38-2.16,1.87-2.18.44-.91,1,.6,5,3.48,3.45,2.18,1.48,1.92-.27L293,72.8l-2,1.25-.09,6.61,3.49,4.47.8,2.53-1.09,2.63c3.27,1.12,5.46,3.84,8.2,4.94-2,1-.81,3-1,5l.08,0,2.09,1.8,1.79.55,2.52,2.29-1,1.08,3.93-.62,3-4.2,5.91-1,2.74-.71-.65-3.13,1.22-4.43Z" transform="translate(-26.25 2.18)"/><path d="M228.92,88.6a1.19,1.19,0,1,0,1.2,1.19A1.19,1.19,0,0,0,228.92,88.6Z" transform="translate(-26.25 2.18)"/><path d="M228.92,88.6a1.19,1.19,0,1,0,1.2,1.19A1.19,1.19,0,0,0,228.92,88.6Z" transform="translate(-26.25 2.18)"/><path d="M374.18,47.86l-1.27.27-1.21,1-2.16,1-1.15,1.65-1.65.53-1.3-1-1.33-1-1.17.49-.16-.84-.64-1.94-.67-1.63-.92-1.69-.31-2.6-.77-2.76-2-4.07-2.29-2.48-3-2.45-2.47-2.61-1.11-2.28L347,23.88l-4.59-2.36-2,.48-4.18,4.13-2.4.68L331.56,28l-2,2.16L328,29.69l-1.91-1-2.19.58-2.07,1.09-3.55.48L315.6,31l-2.42.52-1,.64-.38,1.11L311,34.51l-1.06.17L308,36l-1.22,1.88.09,1.07-.63,1.67,0,1.76-1.43,2.29-.34,2.11-.78,2.53L302.79,51l-.6,2.9L300,55.29l-2.95,1.42-1.33.67-.33.22-.44.12.78.4,2.38.63L300,60.36l1.21,1.58,1.15,2.67,1.77,1.84,1.72.09,1.35.58.65,1.41.59,2.33,2.75,1.36,2.64.38,2,.38,1.54-1.77,1.46,1.51-1.29,2L319.24,77l1.64.11,2.1.28-.53,2.43,1.92,1,2.12-.41,5.57-.57,6.49-1.4,3.15-.13,4-.36,2.35-1.28L350.54,74l3-2.43,3.57-2.25,3-.7,1.27.58,4.75,0L370,70.48l2.67-1.09-.73-1.71-.19-1.23L371,63.7l.1-1.4-.24-1.75.21-2.09-.32-2-.14-1.67,1.11-.32.36,1.27.29.83L372,58.76l-.66,1.36.59.78.83-1.29.75-1.92,1.13-1.53A82.65,82.65,0,0,1,374.18,47.86Z" transform="translate(-26.25 2.18)"/><path d="M374.18,47.86l-1.27.27-1.21,1-2.16,1-1.15,1.65-1.65.53-1.3-1-1.33-1-1.17.49-.16-.84-.64-1.94-.67-1.63-.92-1.69-.31-2.6-.77-2.76-2-4.07-2.29-2.48-3-2.45-2.47-2.61-1.11-2.28L347,23.88l-4.59-2.36-2,.48-4.18,4.13-2.4.68L331.56,28l-2,2.16L328,29.69l-1.91-1-2.19.58-2.07,1.09-3.55.48L315.6,31l-2.42.52-1,.64-.38,1.11L311,34.51l-1.06.17L308,36l-1.22,1.88.09,1.07-.63,1.67,0,1.76-1.43,2.29-.34,2.11-.78,2.53L302.79,51l-.6,2.9L300,55.29l-2.95,1.42-1.33.67-.33.22-.44.12.78.4,2.38.63L300,60.36l1.21,1.58,1.15,2.67,1.77,1.84,1.72.09,1.35.58.65,1.41.59,2.33,2.75,1.36,2.64.38,2,.38,1.54-1.77,1.46,1.51-1.29,2L319.24,77l1.64.11,2.1.28-.53,2.43,1.92,1,2.12-.41,5.57-.57,6.49-1.4,3.15-.13,4-.36,2.35-1.28L350.54,74l3-2.43,3.57-2.25,3-.7,1.27.58,4.75,0L370,70.48l2.67-1.09-.73-1.71-.19-1.23L371,63.7l.1-1.4-.24-1.75.21-2.09-.32-2-.14-1.67,1.11-.32.36,1.27.29.83L372,58.76l-.66,1.36.59.78.83-1.29.75-1.92,1.13-1.53A82.65,82.65,0,0,1,374.18,47.86Z" transform="translate(-26.25 2.18)"/><polygon points="15.29 99.76 15.17 101.93 14.91 105.02 14.81 107.28 14.38 108.7 13.81 110.13 13.04 111.8 12.2 113.57 11.33 114.95 10.16 117.43 9.29 119.88 8.43 121.43 7.25 123.08 6.65 124.13 5.11 125.87 3.32 127.27 2.33 128.27 1.51 131.28 0.18 133.47 0.15 134 1.34 135.28 2.03 137.21 2.3 138.35 3.67 138.15 5.36 138.22 6.29 138.39 5.97 139.11 5.32 139.61 5.17 140.48 4.72 142.29 3.81 144.23 3.83 145.44 3.35 146.87 3.12 147.67 2.86 149.21 2.13 150.66 0.61 152.56 0 154.47 0.37 155.22 2.44 155.17 4.56 155.68 6.78 156.34 8.25 157.29 10.22 157.73 11.98 157.58 13.46 157.06 14.7 157.03 15.05 156.92 15.11 155.62 15.12 153.84 15.39 151.96 17.21 150.59 20.09 149.25 21.59 148.04 21.5 146.06 20.31 143.92 20.19 141.55 20.82 139.28 22.52 137.5 23.54 136.19 23.31 135.13 23.16 134.98 21.92 131.63 22.07 128.93 23.78 128.17 25.68 128.09 27.79 126.57 28.26 125.01 27.49 123.08 27.76 121.81 29.35 119.68 30.29 117.44 30.73 115.24 31.33 113.58 33.47 112.32 35.72 110.9 37.48 108.89 37.81 107.56 36.84 105.96 36.29 104.07 33.81 102.98 31.12 102.3 28.7 102.82 26.26 102.12 24.91 101.55 22.73 101.35 21.73 100.28 21.98 98.79 22.02 98.26 19.68 98.16 17.11 98.44 15.29 99.76"/><polygon points="15.29 99.76 15.17 101.93 14.91 105.02 14.81 107.28 14.38 108.7 13.81 110.13 13.04 111.8 12.2 113.57 11.33 114.95 10.16 117.43 9.29 119.88 8.43 121.43 7.25 123.08 6.65 124.13 5.11 125.87 3.32 127.27 2.33 128.27 1.51 131.28 0.18 133.47 0.15 134 1.34 135.28 2.03 137.21 2.3 138.35 3.67 138.15 5.36 138.22 6.29 138.39 5.97 139.11 5.32 139.61 5.17 140.48 4.72 142.29 3.81 144.23 3.83 145.44 3.35 146.87 3.12 147.67 2.86 149.21 2.13 150.66 0.61 152.56 0 154.47 0.37 155.22 2.44 155.17 4.56 155.68 6.78 156.34 8.25 157.29 10.22 157.73 11.98 157.58 13.46 157.06 14.7 157.03 15.05 156.92 15.11 155.62 15.12 153.84 15.39 151.96 17.21 150.59 20.09 149.25 21.59 148.04 21.5 146.06 20.31 143.92 20.19 141.55 20.82 139.28 22.52 137.5 23.54 136.19 23.31 135.13 23.16 134.98 21.92 131.63 22.07 128.93 23.78 128.17 25.68 128.09 27.79 126.57 28.26 125.01 27.49 123.08 27.76 121.81 29.35 119.68 30.29 117.44 30.73 115.24 31.33 113.58 33.47 112.32 35.72 110.9 37.48 108.89 37.81 107.56 36.84 105.96 36.29 104.07 33.81 102.98 31.12 102.3 28.7 102.82 26.26 102.12 24.91 101.55 22.73 101.35 21.73 100.28 21.98 98.79 22.02 98.26 19.68 98.16 17.11 98.44 15.29 99.76"/><path d="M306.62,0c-14.35-.28-28.7-.35-43.05-.35-6.12,0-12.25,0-18.37.16l.09.25.09,2.85-.31,2.49-.32.86-.07.09,0,.24,1,.44.93-1.38.86-.93,1.44.65.88,1.22,1-.15,1.49.18,1.55.08,1.44,1.57,1.61.08.19.23,0,.44-.22,1-.25.63,1.48,1,1.49,1.26,1,.3,1.49-1.3-.54-.81.1-.84,1,.14,1.34.35,1.19.34,1.76-.16,1.09.16.1,1.13.23,1,1.4.88.66-.36,1.35.52,1.27,1.57,2,2.05,2.21.58,2.36.79,1.5-.6,1.31-.87,1.35.63,1.58,1.19,1.19,1.28,1.17.12,1.23-.88L290,18.57l2.73-.41,1.62.77.91-1,1.31-.89,1.64-.53,2-.18,1.69.63L303.23,18l1.85.92,1.48.09.69.08,1.4-.57L308,16.83l-.19-2.14,1.4-5.83,1.51-3L313,3.46l2-2.64.08-.62Z" transform="translate(-26.25 2.18)"/><path d="M306.62,0c-14.35-.28-28.7-.35-43.05-.35-6.12,0-12.25,0-18.37.16l.09.25.09,2.85-.31,2.49-.32.86-.07.09,0,.24,1,.44.93-1.38.86-.93,1.44.65.88,1.22,1-.15,1.49.18,1.55.08,1.44,1.57,1.61.08.19.23,0,.44-.22,1-.25.63,1.48,1,1.49,1.26,1,.3,1.49-1.3-.54-.81.1-.84,1,.14,1.34.35,1.19.34,1.76-.16,1.09.16.1,1.13.23,1,1.4.88.66-.36,1.35.52,1.27,1.57,2,2.05,2.21.58,2.36.79,1.5-.6,1.31-.87,1.35.63,1.58,1.19,1.19,1.28,1.17.12,1.23-.88L290,18.57l2.73-.41,1.62.77.91-1,1.31-.89,1.64-.53,2-.18,1.69.63L303.23,18l1.85.92,1.48.09.69.08,1.4-.57L308,16.83l-.19-2.14,1.4-5.83,1.51-3L313,3.46l2-2.64.08-.62Z" transform="translate(-26.25 2.18)"/><path d="M163.18.52l.5.17,1.3,0,.93.22.37.38-.48-.06-1.55.05L163,1.83l-.4-.19-1-.85h-.94l-.37.28,0,.14.64.33,1.62,1.11.76-.15L165.23,2,167.37.84l1.57-.39,1.55,0,.62.11.68.85.48,0,.21.89,1.09.76,1.31.11L176,4l0,1.39-.26,1.49.21,1.45,1.08.9,1.55.08.08-.75-.32-1.13L178,6.06l.13-1L179,4l.08-2.53.17-1.2C173.91.34,168.55.4,163.18.52Z" transform="translate(-26.25 2.18)"/><path d="M163.18.52l.5.17,1.3,0,.93.22.37.38-.48-.06-1.55.05L163,1.83l-.4-.19-1-.85h-.94l-.37.28,0,.14.64.33,1.62,1.11.76-.15L165.23,2,167.37.84l1.57-.39,1.55,0,.62.11.68.85.48,0,.21.89,1.09.76,1.31.11L176,4l0,1.39-.26,1.49.21,1.45,1.08.9,1.55.08.08-.75-.32-1.13L178,6.06l.13-1L179,4l.08-2.53.17-1.2C173.91.34,168.55.4,163.18.52Z" transform="translate(-26.25 2.18)"/><path d="M302.29,95.23c-2.74-1.1-4.93-3.82-8.2-4.94l-1.17,2.82-2.07.45-1.5,7.18.12,3.2.07.93,2.12,1.51,1.54.8,1.33,2,1,.61L296,107l-.62-1.72.34-2.41,1-1.17.88-1.68,1.38,1,2.23-.78C301.48,98.18,300.27,96.24,302.29,95.23Z" transform="translate(-26.25 2.18)"/><path d="M302.29,95.23c-2.74-1.1-4.93-3.82-8.2-4.94l-1.17,2.82-2.07.45-1.5,7.18.12,3.2.07.93,2.12,1.51,1.54.8,1.33,2,1,.61L296,107l-.62-1.72.34-2.41,1-1.17.88-1.68,1.38,1,2.23-.78C301.48,98.18,300.27,96.24,302.29,95.23Z" transform="translate(-26.25 2.18)"/><path d="M374.22,34.24l-.68-1.44L370,30.56l-1.59-4.28-2.58-4.36L357,19.42l-2.95,3.13-3.62-.72L347,23.88l1.69,1.63,1.11,2.28,2.47,2.61,3,2.45,2.29,2.49,2,4.06.77,2.76.31,2.6.92,1.69.67,1.63.64,1.94.16.84,1.17-.49,1.33,1,1.3,1,1.65-.53,1.15-1.65-1-3.84,2-4.49,3.06-4.37,1.26-.75A16.12,16.12,0,0,1,374.22,34.24Z" transform="translate(-26.25 2.18)"/><path d="M374.22,34.24l-.68-1.44L370,30.56l-1.59-4.28-2.58-4.36L357,19.42l-2.95,3.13-3.62-.72L347,23.88l1.69,1.63,1.11,2.28,2.47,2.61,3,2.45,2.29,2.49,2,4.06.77,2.76.31,2.6.92,1.69.67,1.63.64,1.94.16.84,1.17-.49,1.33,1,1.3,1,1.65-.53,1.15-1.65-1-3.84,2-4.49,3.06-4.37,1.26-.75A16.12,16.12,0,0,1,374.22,34.24Z" transform="translate(-26.25 2.18)"/><polygon points="235.14 188.03 235.29 188.01 235.38 188.45 235.41 189.25 235.38 189.68 234.54 189.63 233.15 189.05 232.06 187.95 232.77 186.37 233.56 187.5 234.75 187.63 235.14 188.03"/><polygon points="235.14 188.03 235.29 188.01 235.38 188.45 235.41 189.25 235.38 189.68 234.54 189.63 233.15 189.05 232.06 187.95 232.77 186.37 233.56 187.5 234.75 187.63 235.14 188.03"/><polygon points="230.41 184.54 231.2 184.65 231.46 184.97 231.56 184.96 232.18 185.32 232.19 185.42 231.62 186.31 231.06 186.28 230.14 185.8 229.41 184.91 230.41 184.54"/><polygon points="280.54 108.06 284.48 107.44 287.45 103.23 293.35 102.24 296.1 101.53 296.26 102.31 300.61 104.64 302.54 109.23 303.24 111.94 302.21 112.5 300.23 115.11 296.83 115.8 294.04 117.5 292.53 119.58 289.29 120.47 287.35 121.08 286.69 121.39 285.14 120.44 283.28 119.14 281.29 116.08 280.75 113.35 280.57 110.38 280.54 108.06"/><polygon points="280.54 108.06 284.48 107.44 287.45 103.23 293.35 102.24 296.1 101.53 296.26 102.31 300.61 104.64 302.54 109.23 303.24 111.94 302.21 112.5 300.23 115.11 296.83 115.8 294.04 117.5 292.53 119.58 289.29 120.47 287.35 121.08 286.69 121.39 285.14 120.44 283.28 119.14 281.29 116.08 280.75 113.35 280.57 110.38 280.54 108.06"/><polygon points="151.66 26.07 152.6 26.07 153.42 25.91 154.12 25.1 154.06 23.39 153.66 22.37 152.93 21.27 152.93 20.28 153.31 19.25 152.24 18.48 151.31 18.57 149.87 19.55 148.95 21.32 149.49 23.1 149.43 25.26 151.66 26.07"/><polygon points="151.66 26.07 152.6 26.07 153.42 25.91 154.12 25.1 154.06 23.39 153.66 22.37 152.93 21.27 152.93 20.28 153.31 19.25 152.24 18.48 151.31 18.57 149.87 19.55 148.95 21.32 149.49 23.1 149.43 25.26 151.66 26.07"/><path d="M228.92,91a1.19,1.19,0,1,1,1.2-1.19,1.19,1.19,0,0,1-1.2,1.19Zm61.92,40.85-.71-1.18-1.2-1.33-1.9-1.47-1.31-1.72-.93-1.16-1.8-.29-4.47-1.15L277,122.19l-2.15-.89-4.2-1.16-2.13-.67-1.36-.65-1.11-.27-.68.06-.58-.64-.09-.93.9-1.16,1.14-.93,0-1.47-.51-.48-.68-.8-.9.08-.84.24-.6.49-1.42.21-1.68.06-2,.18-.05.31.08,1-2.32-1.92-1.79-1.09-.54-.18-.29.17-.5-1.26-.68.06-.53-.56-3.11-2.42-1-1.3-1.41-2.2-.67-1.38-.51-1.42-.59-.73-.66-2.1L243,96.79l-.69-.94-.73-1.4-.73-.38h-1l-.17-.15-.09-.38-.73-.38-1.64-1-1.17-1.06-1.25-.33-1.38-.66-.79-.4-1-1.12-.95-1.39-.59-1.41L230,83V81.32l.16-1,.93-.86.13-1-.56-1-1.16-.28L229,74.78l.21-1.15.73-.45.92-.94.55,0,.24.29.68-.2,1.61-.92,2.26-1.27,1-.78,1.49.25,1.31-.8,1.17.06.13.9-.24.71-.07.48.61.39.85-.21.48-.52.16-.62-.44-.65-.55-.26-.45-.73-.49-.18-.71-.27-.39-.33L240,66.3l-.34-.11-.42-.74,0-1.3.38-1.06-.25,0-.59.22-.41-.27-.06-.69.36-1.19.63-.75.85-.77-1.31,0-.72-.32L236.8,59h-1.86l-1.48-.17-1.39-.1-1.47-1-.69,0-1.19-.59-.66-.55-.64-1-.33-1.19,0-.69-.41-.27-.93.08-.64.58-1.49.35-2.92.26-1.82.93-1,.48-2.39.81-.69.07-1.33-.33-.58-.28-.32.8-.14.87.18,1.06-.66.45-1.67.15-.25.93.18,1.15.46.87-.24.63-3.13-.55-1.78-.1-.93-.83-1.1-.51L203.14,63l-1.51,3-.39,1.5-.33.64-1.06-.68-1-1.22L197.17,65l-.74-2.1-.13-.9-1.69.9-1,1.16,0,1.38-.63.75L192,67l-.56.6-2-.13-.76.12-.44,0-1.43.38-1.14.32-1.38,0-.91,0-.61.05-.18.71.23.81.4,1,1.1,3.06.37,1.43-1.75,1.15-.83,1-.35,1.33.07.77.28.67.56.11.72.38.11,1.24-.34,1.5,0,1.74.45,1.73.89,1.31,1.42.34,1.38,0,1.16.2.49,1.26,0,1.3-.37,1.11.12.52,1.32.13,1.51-.13,1.72-.62L194,92l.29-1.08,1.5-2.15.74-.37.31-.94,1.33-.67,1.47-.57,1.38,0,1.5.34,1.6.85,4.88,2.9,2.77,1.06.45.73.34,2,.91,2.44,1.34,3,.55,1.81-.06,1.17.52.56,2.91,2.65,1.69,1.93.69,2.41,1.25-.5,1.16,0,1.57,1.11,1.29,1.8,1.15,1.45,1.62.16.94,1.22,2.3,2.56L234.6,120l2.52,1.63,1.81,1.45,1-.39,4.45-.08,1,.21,1.35,1.21,1.35,1.41.84,1.7,2.84.91.26.42-.1,1.34,1.57-.39,1.6-.36.93.14.77.93.77,1.79v.69l-.2.57,1,1.13,2.05.6,1,.75,1,1.16.69-1.61.94-.09.26.45.61.72.42.66.26,1.11.8,2.17,1.14,1.59,1.12,1.45,1,3,.65,1.11.58,1.5.55.86L269,151.13l-.93,1.08.49,1.78-1.05,1.95-.53,1.82.32,2.05.49,1.25.17.07,1.3,0,1.36-.37.49-.4.37-1.11.74-2,.48-.82,1-1.14,1.12-.43.38-1.09-.18-2.06-.16-1.76.45-.9,1.33-.58,1.68-1.15.85-.07.23-.77-.24-.92-.05-1.46-.28-.67-.23-1.67-.09-.13-.84-.78-1.83-.67-.93-1.09-2-.6-.07-1.76.31-1.86.17-1.48,1.2-2.18,1.7-2.31,1.81-.54,1.06.68,2,1,2.41.32,2,.74.82,1.48,1.54,1.77,1.73.55.27.22,0-.38.33-1.28Z" transform="translate(-26.25 2.18)"/><path d="M228.92,91a1.19,1.19,0,1,1,1.2-1.19,1.19,1.19,0,0,1-1.2,1.19Zm61.92,40.85-.71-1.18-1.2-1.33-1.9-1.47-1.31-1.72-.93-1.16-1.8-.29-4.47-1.15L277,122.19l-2.15-.89-4.2-1.16-2.13-.67-1.36-.65-1.11-.27-.68.06-.58-.64-.09-.93.9-1.16,1.14-.93,0-1.47-.51-.48-.68-.8-.9.08-.84.24-.6.49-1.42.21-1.68.06-2,.18-.05.31.08,1-2.32-1.92-1.79-1.09-.54-.18-.29.17-.5-1.26-.68.06-.53-.56-3.11-2.42-1-1.3-1.41-2.2-.67-1.38-.51-1.42-.59-.73-.66-2.1L243,96.79l-.69-.94-.73-1.4-.73-.38h-1l-.17-.15-.09-.38-.73-.38-1.64-1-1.17-1.06-1.25-.33-1.38-.66-.79-.4-1-1.12-.95-1.39-.59-1.41L230,83V81.32l.16-1,.93-.86.13-1-.56-1-1.16-.28L229,74.78l.21-1.15.73-.45.92-.94.55,0,.24.29.68-.2,1.61-.92,2.26-1.27,1-.78,1.49.25,1.31-.8,1.17.06.13.9-.24.71-.07.48.61.39.85-.21.48-.52.16-.62-.44-.65-.55-.26-.45-.73-.49-.18-.71-.27-.39-.33L240,66.3l-.34-.11-.42-.74,0-1.3.38-1.06-.25,0-.59.22-.41-.27-.06-.69.36-1.19.63-.75.85-.77-1.31,0-.72-.32L236.8,59h-1.86l-1.48-.17-1.39-.1-1.47-1-.69,0-1.19-.59-.66-.55-.64-1-.33-1.19,0-.69-.41-.27-.93.08-.64.58-1.49.35-2.92.26-1.82.93-1,.48-2.39.81-.69.07-1.33-.33-.58-.28-.32.8-.14.87.18,1.06-.66.45-1.67.15-.25.93.18,1.15.46.87-.24.63-3.13-.55-1.78-.1-.93-.83-1.1-.51L203.14,63l-1.51,3-.39,1.5-.33.64-1.06-.68-1-1.22L197.17,65l-.74-2.1-.13-.9-1.69.9-1,1.16,0,1.38-.63.75L192,67l-.56.6-2-.13-.76.12-.44,0-1.43.38-1.14.32-1.38,0-.91,0-.61.05-.18.71.23.81.4,1,1.1,3.06.37,1.43-1.75,1.15-.83,1-.35,1.33.07.77.28.67.56.11.72.38.11,1.24-.34,1.5,0,1.74.45,1.73.89,1.31,1.42.34,1.38,0,1.16.2.49,1.26,0,1.3-.37,1.11.12.52,1.32.13,1.51-.13,1.72-.62L194,92l.29-1.08,1.5-2.15.74-.37.31-.94,1.33-.67,1.47-.57,1.38,0,1.5.34,1.6.85,4.88,2.9,2.77,1.06.45.73.34,2,.91,2.44,1.34,3,.55,1.81-.06,1.17.52.56,2.91,2.65,1.69,1.93.69,2.41,1.25-.5,1.16,0,1.57,1.11,1.29,1.8,1.15,1.45,1.62.16.94,1.22,2.3,2.56L234.6,120l2.52,1.63,1.81,1.45,1-.39,4.45-.08,1,.21,1.35,1.21,1.35,1.41.84,1.7,2.84.91.26.42-.1,1.34,1.57-.39,1.6-.36.93.14.77.93.77,1.79v.69l-.2.57,1,1.13,2.05.6,1,.75,1,1.16.69-1.61.94-.09.26.45.61.72.42.66.26,1.11.8,2.17,1.14,1.59,1.12,1.45,1,3,.65,1.11.58,1.5.55.86L269,151.13l-.93,1.08.49,1.78-1.05,1.95-.53,1.82.32,2.05.49,1.25.17.07,1.3,0,1.36-.37.49-.4.37-1.11.74-2,.48-.82,1-1.14,1.12-.43.38-1.09-.18-2.06-.16-1.76.45-.9,1.33-.58,1.68-1.15.85-.07.23-.77-.24-.92-.05-1.46-.28-.67-.23-1.67-.09-.13-.84-.78-1.83-.67-.93-1.09-2-.6-.07-1.76.31-1.86.17-1.48,1.2-2.18,1.7-2.31,1.81-.54,1.06.68,2,1,2.41.32,2,.74.82,1.48,1.54,1.77,1.73.55.27.22,0-.38.33-1.28Z" transform="translate(-26.25 2.18)"/><polygon points="181.62 133.04 180.78 130.79 180.54 129.6 180.17 128.85 179.69 127.81 178.77 127.12 178.43 126.63 177.72 126.47 177.16 126.04 176.54 125.93 175.59 127.4 174.55 127.88 173.47 128.83 171.12 131.03 169.54 131.34 168.71 130.71 167.95 129.92 167.91 130.15 167.98 130.92 167.88 131.7 167.83 133.7 168.36 134.65 169.22 134.66 169.46 134.86 170.04 136.19 170.3 137.55 170.4 139.26 170.21 140.58 170.48 142.08 170.92 142.68 170.78 143.68 170.14 144.26 169.92 146.14 169.86 146.45 169.59 147.77 170.09 149.12 170.02 150.12 170.31 151.56 171.69 153.43 171.88 153.66 172.24 154.32 173.08 155.08 174.06 154.91 174.81 154.63 175.95 153.67 176.66 152 177.66 151.14 178.92 151.58 179.94 151.8 180.94 150.93 181.03 150.09 181.54 148.97 181.54 147.97 181.66 144.34 181.68 140.02 181.51 139.03 181.85 137.62 181.89 136.18 181.89 135.49 181.62 133.04"/><polygon points="181.62 133.04 180.78 130.79 180.54 129.6 180.17 128.85 179.69 127.81 178.77 127.12 178.43 126.63 177.72 126.47 177.16 126.04 176.54 125.93 175.59 127.4 174.55 127.88 173.47 128.83 171.12 131.03 169.54 131.34 168.71 130.71 167.95 129.92 167.91 130.15 167.98 130.92 167.88 131.7 167.83 133.7 168.36 134.65 169.22 134.66 169.46 134.86 170.04 136.19 170.3 137.55 170.4 139.26 170.21 140.58 170.48 142.08 170.92 142.68 170.78 143.68 170.14 144.26 169.92 146.14 169.86 146.45 169.59 147.77 170.09 149.12 170.02 150.12 170.31 151.56 171.69 153.43 171.88 153.66 172.24 154.32 173.08 155.08 174.06 154.91 174.81 154.63 175.95 153.67 176.66 152 177.66 151.14 178.92 151.58 179.94 151.8 180.94 150.93 181.03 150.09 181.54 148.97 181.54 147.97 181.66 144.34 181.68 140.02 181.51 139.03 181.85 137.62 181.89 136.18 181.89 135.49 181.62 133.04"/><polygon points="238.54 159.6 236.96 159.96 236.49 159.92 235.5 160.92 232.28 161.2 230.68 162.2 229.34 162.7 225.71 163.32 223.89 163.7 222.71 164.19 221.43 164.39 220.63 163.16 218.5 162.49 216.79 161.72 215.26 162.55 214.04 163.49 212.98 163.66 211.91 162.84 211.25 162.59 210.54 162.96 210.13 163.69 209.88 164.32 209.54 165.82 210.22 168.22 211.32 169.43 214.36 169.94 216.59 170.74 218.87 172.14 221.02 172.95 222.42 174.16 223.94 174.77 225.55 174.8 228.16 175.48 229.84 177.28 231.97 178.53 234.09 178.98 235.68 178.9 236.89 178.73 236.94 177.4 237.39 175.62 237.84 174.42 237.3 173.6 236.72 172.44 236.59 171.54 235.76 170.91 235.75 169.89 236.29 168.1 237.18 165.25 238.37 163.13 239.29 161.22 239.34 159.28 239.12 159.21 238.54 159.6"/><polygon points="238.54 159.6 236.96 159.96 236.49 159.92 235.5 160.92 232.28 161.2 230.68 162.2 229.34 162.7 225.71 163.32 223.89 163.7 222.71 164.19 221.43 164.39 220.63 163.16 218.5 162.49 216.79 161.72 215.26 162.55 214.04 163.49 212.98 163.66 211.91 162.84 211.25 162.59 210.54 162.96 210.13 163.69 209.88 164.32 209.54 165.82 210.22 168.22 211.32 169.43 214.36 169.94 216.59 170.74 218.87 172.14 221.02 172.95 222.42 174.16 223.94 174.77 225.55 174.8 228.16 175.48 229.84 177.28 231.97 178.53 234.09 178.98 235.68 178.9 236.89 178.73 236.94 177.4 237.39 175.62 237.84 174.42 237.3 173.6 236.72 172.44 236.59 171.54 235.76 170.91 235.75 169.89 236.29 168.1 237.18 165.25 238.37 163.13 239.29 161.22 239.34 159.28 239.12 159.21 238.54 159.6"/><polygon points="279.32 30.2 277.61 30.99 274.88 29.84 272.57 29.66 270.94 30.33 268.41 30.55 266.26 32.21 265.89 34.01 264.48 34.66 262.66 35.98 260.1 35.59 258 37.22 255.81 38.35 253.72 39.23 252.87 40.91 252.68 41.23 252.13 42.27 251.32 42.51 250.38 42.51 249.35 42.77 247.9 42.95 246.38 43.33 245.43 42.8 242.5 41.04 241.3 40.62 240.41 40.23 240.44 41.47 240.75 43.13 240.17 44.4 237.86 44.6 236.36 44.9 235.86 46.11 236.96 47.31 236.04 50.08 236.08 51.46 236.47 53.11 234.81 53.73 233.78 54.9 233.44 55.45 234.54 55.44 235.66 55.87 236.74 57.77 238.29 59.63 240.11 60.24 241.99 62.4 244.22 63.2 246.26 65.32 248.06 65.64 250.46 66.81 253.1 66.27 255.1 65.46 256.91 64 258.95 63.52 259.86 62.52 262.03 62.09 264.2 60.21 265.99 59.83 267.76 58.9 268.61 59.68 269.14 59.78 269.48 59.55 270.81 58.88 273.76 57.46 275.93 56.05 276.54 53.15 277.47 51.46 278.24 48.93 278.58 46.82 280.02 44.54 280 42.77 280.63 41.11 280.54 40.04 281.76 38.16 283.64 36.86 284.7 36.68 285.59 35.44 285.96 34.33 285.06 32.88 283.59 31.93 281.68 30.94 279.32 30.2"/><polygon points="279.32 30.2 277.61 30.99 274.88 29.84 272.57 29.66 270.94 30.33 268.41 30.55 266.26 32.21 265.89 34.01 264.48 34.66 262.66 35.98 260.1 35.59 258 37.22 255.81 38.35 253.72 39.23 252.87 40.91 252.68 41.23 252.13 42.27 251.32 42.51 250.38 42.51 249.35 42.77 247.9 42.95 246.38 43.33 245.43 42.8 242.5 41.04 241.3 40.62 240.41 40.23 240.44 41.47 240.75 43.13 240.17 44.4 237.86 44.6 236.36 44.9 235.86 46.11 236.96 47.31 236.04 50.08 236.08 51.46 236.47 53.11 234.81 53.73 233.78 54.9 233.44 55.45 234.54 55.44 235.66 55.87 236.74 57.77 238.29 59.63 240.11 60.24 241.99 62.4 244.22 63.2 246.26 65.32 248.06 65.64 250.46 66.81 253.1 66.27 255.1 65.46 256.91 64 258.95 63.52 259.86 62.52 262.03 62.09 264.2 60.21 265.99 59.83 267.76 58.9 268.61 59.68 269.14 59.78 269.48 59.55 270.81 58.88 273.76 57.46 275.93 56.05 276.54 53.15 277.47 51.46 278.24 48.93 278.58 46.82 280.02 44.54 280 42.77 280.63 41.11 280.54 40.04 281.76 38.16 283.64 36.86 284.7 36.68 285.59 35.44 285.96 34.33 285.06 32.88 283.59 31.93 281.68 30.94 279.32 30.2"/><polygon points="333.43 100.54 331.29 101.14 331.4 104.02 329.54 106.51 326.43 108 323.02 107.61 320.14 107.33 318.2 106.34 316.32 106.67 314.63 107.57 311.64 109.46 307.86 110.23 305.27 111.4 303.56 112 303.24 111.94 302.21 112.5 300.23 115.11 296.83 115.8 294.04 117.51 292.53 119.58 289.29 120.47 287.35 121.08 286.69 121.39 287.3 123 287.67 125.37 285.85 127.66 284.82 130.77 283.43 132.28 283.22 134.29 282.63 135.5 281.36 136.83 282.92 139.71 284.78 140.71 288.11 144.57 288.27 142.96 291 143.55 291.81 144.86 290.26 145.47 288.41 145.54 291.2 148.37 292.54 150.34 293.46 151.33 294.41 150.86 294.65 150.15 295.28 150.04 297.85 150.56 300.91 149.54 303.08 149.58 305.25 148.83 307.02 149.07 307.95 147.99 309.33 148.95 310.79 149.73 312.86 149.64 312.81 151.02 311.12 151.95 312.93 152.4 315.43 151.87 317.73 150.98 319.97 152.78 322.39 153.66 322.88 152.47 322.43 150.41 322.28 148.86 321.05 147.4 319.53 146.84 318.6 146.92 317.01 146.2 315.45 145.12 314.31 145.36 313.1 143.63 311.49 143.83 310.06 143.35 308.45 143.27 306.25 142.77 305.25 141.86 306.88 141.16 307.95 141.07 308.75 140.69 309.16 140.05 308.81 139.52 307.76 137.93 307.85 136.4 309.45 136.34 310.38 137.17 310.32 138.34 311.1 138.41 311.81 137.74 311.15 136.5 309.94 134.97 308.46 133.88 306.37 132.76 305.16 130.4 303.77 129.36 303.04 127.35 302.61 124.92 302.56 122.46 303.94 121.82 304.69 123.05 307.06 123.93 308.99 124.75 311.38 127.45 313.96 128.21 314.22 127.63 312.37 126.71 311.13 125 311.8 124.64 313.6 124.95 315.41 126.3 317.05 127.38 317.04 126.3 314.46 124.47 314.15 122.83 315.22 122.65 317.4 122.81 318.58 123.59 319.57 123.92 318.98 123.14 318.05 122.36 316.79 121.55 314.36 120.82 312.18 119.28 313.82 117.63 316.4 116.41 317.76 114.3 319.7 114.6 320.92 114.32 321.71 113.81 323.14 112.44 324.66 112.47 325.95 112.36 331.36 112.5 334.09 113.59 334.96 111.56 334.77 106.4 336.01 104.36 335.92 102.25 334.57 101.32 333.43 100.54"/><polygon points="333.43 100.54 331.29 101.14 331.4 104.02 329.54 106.51 326.43 108 323.02 107.61 320.14 107.33 318.2 106.34 316.32 106.67 314.63 107.57 311.64 109.46 307.86 110.23 305.27 111.4 303.56 112 303.24 111.94 302.21 112.5 300.23 115.11 296.83 115.8 294.04 117.51 292.53 119.58 289.29 120.47 287.35 121.08 286.69 121.39 287.3 123 287.67 125.37 285.85 127.66 284.82 130.77 283.43 132.28 283.22 134.29 282.63 135.5 281.36 136.83 282.92 139.71 284.78 140.71 288.11 144.57 288.27 142.96 291 143.55 291.81 144.86 290.26 145.47 288.41 145.54 291.2 148.37 292.54 150.34 293.46 151.33 294.41 150.86 294.65 150.15 295.28 150.04 297.85 150.56 300.91 149.54 303.08 149.58 305.25 148.83 307.02 149.07 307.95 147.99 309.33 148.95 310.79 149.73 312.86 149.64 312.81 151.02 311.12 151.95 312.93 152.4 315.43 151.87 317.73 150.98 319.97 152.78 322.39 153.66 322.88 152.47 322.43 150.41 322.28 148.86 321.05 147.4 319.53 146.84 318.6 146.92 317.01 146.2 315.45 145.12 314.31 145.36 313.1 143.63 311.49 143.83 310.06 143.35 308.45 143.27 306.25 142.77 305.25 141.86 306.88 141.16 307.95 141.07 308.75 140.69 309.16 140.05 308.81 139.52 307.76 137.93 307.85 136.4 309.45 136.34 310.38 137.17 310.32 138.34 311.1 138.41 311.81 137.74 311.15 136.5 309.94 134.97 308.46 133.88 306.37 132.76 305.16 130.4 303.77 129.36 303.04 127.35 302.61 124.92 302.56 122.46 303.94 121.82 304.69 123.05 307.06 123.93 308.99 124.75 311.38 127.45 313.96 128.21 314.22 127.63 312.37 126.71 311.13 125 311.8 124.64 313.6 124.95 315.41 126.3 317.05 127.38 317.04 126.3 314.46 124.47 314.15 122.83 315.22 122.65 317.4 122.81 318.58 123.59 319.57 123.92 318.98 123.14 318.05 122.36 316.79 121.55 314.36 120.82 312.18 119.28 313.82 117.63 316.4 116.41 317.76 114.3 319.7 114.6 320.92 114.32 321.71 113.81 323.14 112.44 324.66 112.47 325.95 112.36 331.36 112.5 334.09 113.59 334.96 111.56 334.77 106.4 336.01 104.36 335.92 102.25 334.57 101.32 333.43 100.54"/><polygon points="280.67 140.6 280.69 139.91 279.67 138.61 278.68 137.09 277.48 136.42 276.29 137.08 278.31 139.9 279.7 140.94 280.67 140.6"/><polygon points="280.67 140.6 280.69 139.91 279.67 138.61 278.68 137.09 277.48 136.42 276.29 137.08 278.31 139.9 279.7 140.94 280.67 140.6"/><polygon points="289.91 155.35 290.08 153.87 288.63 153.14 287.94 151.51 287.08 152.19 285.96 153.62 285.92 153.76 286.89 154.37 287.47 155.01 288.85 154.97 289.91 155.35"/><polygon points="289.91 155.35 290.08 153.87 288.63 153.14 287.94 151.51 287.08 152.19 285.96 153.62 285.92 153.76 286.89 154.37 287.47 155.01 288.85 154.97 289.91 155.35"/><polygon points="301.91 150.21 300.78 150.55 299.57 150.96 297.37 153.07 295.91 152.81 294.45 156.4 294.29 158.04 295.91 160.12 298.75 160.86 300.47 162.79 300.13 165.84 301.01 168.06 302.16 168.87 303.71 169.12 303.76 167.21 304.69 165.49 305.73 166.57 307.33 167.5 308.73 170.15 309.04 171.16 310.18 171.93 310.31 170.87 310.28 167.74 311.87 167.44 314.29 169.69 315.98 170.67 316.57 170.32 315.27 167.26 315.36 166.23 313.13 161.68 311.44 160.06 310.52 158.06 311.28 158.25 312.65 158.73 314.1 159.38 314.63 160.42 315.45 160.04 316.42 158.71 317.89 158.19 317.35 157.02 316.24 156.65 314.89 156.08 313.82 154.65 313.05 153.77 312.77 152.77 311.07 152.26 306.53 151.35 304.3 151.16 303.31 151.33 302.48 150.63 301.91 150.21"/><polygon points="301.91 150.21 300.78 150.55 299.57 150.96 297.37 153.07 295.91 152.81 294.45 156.4 294.29 158.04 295.91 160.12 298.75 160.86 300.47 162.79 300.13 165.84 301.01 168.06 302.16 168.87 303.71 169.12 303.76 167.21 304.69 165.49 305.73 166.57 307.33 167.5 308.73 170.15 309.04 171.16 310.18 171.93 310.31 170.87 310.28 167.74 311.87 167.44 314.29 169.69 315.98 170.67 316.57 170.32 315.27 167.26 315.36 166.23 313.13 161.68 311.44 160.06 310.52 158.06 311.28 158.25 312.65 158.73 314.1 159.38 314.63 160.42 315.45 160.04 316.42 158.71 317.89 158.19 317.35 157.02 316.24 156.65 314.89 156.08 313.82 154.65 313.05 153.77 312.77 152.77 311.07 152.26 306.53 151.35 304.3 151.16 303.31 151.33 302.48 150.63 301.91 150.21"/><polygon points="331.29 151.18 331.7 150.45 331.36 149.15 330.93 148.58 329.57 148 328.24 147.98 328.31 148.81 329.4 149.57 330.77 151.22 331.29 151.18"/><polygon points="331.29 151.18 331.7 150.45 331.36 149.15 330.93 148.58 329.57 148 328.24 147.98 328.31 148.81 329.4 149.57 330.77 151.22 331.29 151.18"/><polygon points="328.47 122.46 328.14 122.11 327.06 122.2 325.82 122.84 325.8 124.53 326.51 124.77 326.84 124.05 327.31 124.01 328.24 124.23 328.55 124.29 328.71 122.67 328.47 122.46"/><polygon points="328.47 122.46 328.14 122.11 327.06 122.2 325.82 122.84 325.8 124.53 326.51 124.77 326.84 124.05 327.31 124.01 328.24 124.23 328.55 124.29 328.71 122.67 328.47 122.46"/><polygon points="321.28 117.75 322.08 117.16 321.58 116.81 321.26 115.68 320.34 115.54 319.24 117.24 319.52 117.91 320.62 118.2 321.28 117.75"/><polygon points="321.28 117.75 322.08 117.16 321.58 116.81 321.26 115.68 320.34 115.54 319.24 117.24 319.52 117.91 320.62 118.2 321.28 117.75"/><polygon points="326.29 148.21 326.88 148.28 326.42 146.89 324.99 146.89 323.98 146.75 322.4 144.51 322.05 143.07 320.9 142.26 318.14 142.34 316.17 141.9 314.31 140.9 312.92 139.94 312.48 139.29 311.41 139.46 310.04 141.19 309.52 142.23 309.96 142.19 311.23 141.86 312.63 142.65 314.1 143.67 315.59 144.16 316.7 145.44 318.39 146.17 319.88 145.72 322.04 146.67 322.89 147.62 323.7 148.99 324.85 149.67 325.44 149.57 326.65 149.47 326.29 148.21"/><polygon points="326.29 148.21 326.88 148.28 326.42 146.89 324.99 146.89 323.98 146.75 322.4 144.51 322.05 143.07 320.9 142.26 318.14 142.34 316.17 141.9 314.31 140.9 312.92 139.94 312.48 139.29 311.41 139.46 310.04 141.19 309.52 142.23 309.96 142.19 311.23 141.86 312.63 142.65 314.1 143.67 315.59 144.16 316.7 145.44 318.39 146.17 319.88 145.72 322.04 146.67 322.89 147.62 323.7 148.99 324.85 149.67 325.44 149.57 326.65 149.47 326.29 148.21"/><polygon points="318.08 176.47 319.1 176.55 319.18 175.48 319.83 175.18 320.25 176.19 321.29 176.48 321.63 175.38 322.31 175.5 322.48 176.54 324.02 176.76 324.6 177.54 325.79 177.59 327.52 176 330.28 175.65 331.08 176.07 331.86 175.34 333.42 175.77 335.13 174.92 335.39 176.05 335.91 176.19 336.39 174.96 337.45 174.31 337.96 173.29 338.62 173.1 338.93 174.86 338.84 177.83 337.46 177.58 336.87 178.61 333.57 178.61 333.08 179.84 330.75 180.35 328.4 181.7 328.26 180.46 327.97 179.43 324.06 179.3 323.18 179.94 318.13 179.21 317.53 178.02 318.08 176.47"/><polygon points="318.08 176.47 319.1 176.55 319.18 175.48 319.83 175.18 320.25 176.19 321.29 176.48 321.63 175.38 322.31 175.5 322.48 176.54 324.02 176.76 324.6 177.54 325.79 177.59 327.52 176 330.28 175.65 331.08 176.07 331.86 175.34 333.42 175.77 335.13 174.92 335.39 176.05 335.91 176.19 336.39 174.96 337.45 174.31 337.96 173.29 338.62 173.1 338.93 174.86 338.84 177.83 337.46 177.58 336.87 178.61 333.57 178.61 333.08 179.84 330.75 180.35 328.4 181.7 328.26 180.46 327.97 179.43 324.06 179.3 323.18 179.94 318.13 179.21 317.53 178.02 318.08 176.47"/><polygon points="290.85 156.42 292.91 157.31 292.91 158.52 291.54 158.68 290.8 158.1 290.85 156.42"/><polygon points="290.85 156.42 292.91 157.31 292.91 158.52 291.54 158.68 290.8 158.1 290.85 156.42"/><polygon points="333.79 157.63 334.42 157.1 335.05 157.21 335.26 158.37 334.63 158.89 333.79 158.68 333.79 157.63"/><polygon points="333.79 157.63 334.42 157.1 335.05 157.21 335.26 158.37 334.63 158.89 333.79 158.68 333.79 157.63"/><polygon points="333.26 165 333.68 164.78 334 165.42 333.68 165.63 333.26 165"/><polygon points="333.26 165 333.68 164.78 334 165.42 333.68 165.63 333.26 165"/><path d="M245.29.08l-.09-.25-1.49.05a75.14,75.14,0,0,1-11-.16c-9.23,1.09-18.57.38-27.85.22-8.52.24-17,.29-25.55.36l-.17,1.2L179,4l-.91,1-.13,1,.26,1.37.32,1.13-.08.75.69.94,0,.25.19,1.2L180,13l0,1.08-1.49,2.21,1.06.76-.38,1v1l.74,1.1.39,1,.07,1.71-.71.81,1,.85.85.84.93,1.08L183.2,28l1.62.16,1.18.2,3.62,1.15,2.08.76,2,.88-.32,1.66-1.16,1.62-1.46,1.68-.4,1.81-1.21,3.57-.27,2.23,0,1.86.18,1.45.29.42.14.07.93.83,1.2-.24,2.14-.19,1.9-.11,3.79-.78,1.4.27,1.6.55,1.76.76.81.48,1.55-.66,1.46-.13,1.25.34.8,1.31,1.44.65.82-.46.44-1,1-1,1.69.07,2,1.12h2l1.46-1,1.35-1L224,47l3.28-.51.54-.82,1.73.46,2.15-.11.71,1.18,1.19-.65-.18-1.15-1.12-2.29L232,40.78l.63-1.74,3.16-1.5.34-1.5.59-1.21,1.33-.56,1.08-.65.15-1.17-.77-.85L236,30.05,234.67,29l-1.54-1.72-4.27-3-1.46-1.81-.09-2.59-.46-1.74-1.74-.62-1.26-1.41-.06-1.32.2-.55,1.63,1.24.62.73.38-.12.26-1.1.31-.89,1-.62,1.12-.48,1-.31,1.33-.59L234,10.76l.85-1.68,1.49-.68,2.06-.87L240,6.78l.25-1.63.08-1.56,1.33.28,1,1.59,1.13,1.23.82-.15.09.07,0-.24.07-.09.32-.86.31-2.49Z" transform="translate(-26.25 2.18)"/><polygon points="128.3 5.82 128.11 8.14 128.36 9.41 129.82 10.29 131.37 10.23 131.89 11.74 132.44 12.99 133.81 13.48 134.77 14 134.88 14.24 135.7 14.78 137.45 15.54 138.13 16.34 138.37 17.48 138.58 19.84 139.96 20.42 141.35 20.52 142.01 19.54 143 18.46 143.86 18.52 143.94 19.43 143.77 21 143.68 21.86 144.26 22.17 144.32 22.25 143.94 22.97 145.56 24 146.65 25.06 148.15 25.46 149.43 25.26 151.66 26.07 152.6 26.07 153.42 25.91 154.41 26.77 155.26 27.6 156.18 28.68 156.95 30.14 158.57 30.3 159.75 30.51 163.36 31.66 165.45 32.42 167.44 33.29 167.11 34.96 165.95 36.58 164.49 38.26 164.1 40.06 162.89 43.63 162.61 45.87 162.64 47.72 162.82 49.17 163.1 49.59 162.02 50.46 160.98 50.94 159.28 50.87 158.44 50.64 157.74 51.61 158.26 52.48 158.06 52.74 157.06 53.58 155.53 55.35 154.68 56.12 153.79 57.41 153.02 59.33 151.99 59.89 151.38 60.86 150.74 61.39 150.15 63.18 150.03 64.74 149.81 66.62 150.32 67.02 151.42 66.39 152.14 65.08 153.11 63.86 154.36 63.84 155.81 64.02 156.31 64.28 156.18 65.37 156.22 66.75 156.46 67.64 156.54 68.49 157.62 68.84 157.93 69.59 157.99 70.5 157.07 70.52 156.47 70.58 156.28 71.28 156.52 72.09 156.91 73.14 158.01 76.2 158.39 77.63 156.63 78.78 155.81 79.77 155.45 81.1 155.52 81.87 155.8 82.54 156.36 82.66 157.09 83.04 157.2 84.27 156.86 85.77 156.87 87.51 157.33 89.24 158.22 90.55 159.63 90.9 161.02 90.94 162.17 91.14 162.67 92.4 162.65 93.71 162.27 94.82 162.4 95.33 162.21 95.68 159.18 97.16 158.93 97.79 157.99 98.35 157.06 99.2 156.06 100.04 155.05 100.82 154.54 101.03 154.46 102.03 154.03 102.54 151.64 103.36 150.75 103.66 150.09 104.02 149.94 103.9 148.77 103.78 147.52 103.72 147.12 103.23 146.62 102.89 146.18 102.29 145.09 102.25 144.31 102.09 143.67 101.82 143.46 101 142.48 100.54 141.33 100.42 140.6 99.95 140.26 99.9 139.35 99.9 139.1 100.47 137.71 100.43 136.36 99.85 136 99.28 135.51 99.01 133.08 98.45 132.55 97.81 131.63 97.72 130.14 98.4 129.22 99.26 127.39 100.25 126.14 100.75 124.12 101.39 123.01 103.01 122.38 105.31 122.55 105.69 122.98 106.09 122.92 110.8 121.9 110.5 119.67 110.39 117.45 110.59 115.14 110.49 112.75 110.44 111.47 109.95 109.86 108.4 109.01 107.48 107.77 107.2 106.88 106.89 104.67 105.09 103.37 104.43 101.91 104.56 100.09 105.57 99.01 105.58 96.58 105.02 93.94 103.87 89.33 102.11 88.39 100.98 86.73 99.66 84.99 99.03 83.68 98.01 82.65 97.02 81.71 95.8 80.54 94.74 80.39 93.98 81.98 94.39 83.81 93.54 84.74 91.83 85.46 89.55 86.65 86.37 87.88 82.72 89.34 80.13 89.83 79.7 88.81 78.49 88.78 78.1 89.28 75.98 90.16 73.05 90.63 70.47 91.22 69.36 92.39 70.95 93.18 72.18 93.56 72.98 93.29 70.87 92.36 69.1 90.87 67.84 90.51 66.32 91.6 64.79 91.89 62.74 91.47 61.4 91.64 59.94 91.34 59.97 91.25 59.89 89.99 59.39 88.17 58.17 86.51 56.63 85.42 54.64 84.68 52.47 85.15 50.88 85.25 49.18 84.98 48.06 88.05 47.94 86.59 47.07 84.1 46.81 82.3 46.45 82.65 45.11 83.02 43.92 82.6 43.65 79.93 43.19 80.67 42.74 79.71 42.21 77.8 42.52 77.07 42.14 76.98 41.68 76.78 41.31 75.6 40.11 74.31 39.31 72.21 38.16 71.38 37.54 70.07 37.44 68.33 37.81 67.83 36.47 66.27 34.48 67.33 34.22 68.61 33.97 68.46 33.2 67.37 33.13 67.22 32.37 68.01 31.61 68.79 31.63 69.18 30.98 66.17 30.78 66.32 30.01 67.15 28.7 68.93 28.15 70.62 27.87 73 27.88 74.24 28.07 75.22 27.91 76.38 27.89 76.7 27.09 77.59 26.79 78.17 27.2 79 27.19 80.63 27.43 81.39 28.23 82.47 29.82 83.72 31.09 85.16 30.8 86.45 30.63 86.8 30.82 87.65 31.06 88.78 30.73 89.91 30.64 90.49 30.97 90.94 31.68 92.65 31.86 93.37 31.25 92.44 30.5 92.28 28.66 92.52 26.95 92.31 25.42 92.3 23.5 91.45 22.64 91.17 21.36 91.39 18.44 92.69 19.07 95.7 19.36 96.21 19.7 95.76 20.96 96.54 21.97 97.22 23.38 97.97 23.4 100.18 24.03 102.11 24.86 103.59 25.04 104.89 24.92 106.42 24.1 109.41 24.09 109.71 23.75 108.9 23.35 106.88 23.01 106.86 22.23 108.05 20.58 110.33 19.46 112.43 19.06 115.01 18.5 116.98 17.33 119 15.71 119.23 14.84 118.7 14.19 119.64 10.04 120.81 7.56 122.69 6.92 124.57 6.54 125.94 6.47 127.61 6.19 128.3 5.82"/><polygon points="178.35 105.18 179.16 105.58 179.37 108.94 179.33 110.32 180.27 114.78 180.04 116.57 179.39 118.07 179.15 119.72 178.72 120.76 178.44 122 178.11 122.67 177.82 122.91 177.31 124.04 177.24 125.04 176.43 123.73 175.5 123.5 174.36 122.91 173.9 122.01 173.91 120.63 172.83 120.28 172.45 117.85 172.51 116.54 172.35 115.78 171.73 114.92 171.65 114.07 171.9 113.44 171.79 112.75 171.8 112.28 172.02 111.96 172.16 110.95 172.56 110.14 173.27 110.38 174.37 109.98 175.39 109.28 176.19 108.61 177.62 108.23 178 107.45 178.15 106.41 178.33 105.87 178.35 105.18"/><polygon points="178.35 105.18 179.16 105.58 179.37 108.94 179.33 110.32 180.27 114.78 180.04 116.57 179.39 118.07 179.15 119.72 178.72 120.76 178.44 122 178.11 122.67 177.82 122.91 177.31 124.04 177.24 125.04 176.43 123.73 175.5 123.5 174.36 122.91 173.9 122.01 173.91 120.63 172.83 120.28 172.45 117.85 172.51 116.54 172.35 115.78 171.73 114.92 171.65 114.07 171.9 113.44 171.79 112.75 171.8 112.28 172.02 111.96 172.16 110.95 172.56 110.14 173.27 110.38 174.37 109.98 175.39 109.28 176.19 108.61 177.62 108.23 178 107.45 178.15 106.41 178.33 105.87 178.35 105.18"/><polygon points="237.64 33.24 238.39 32.15 239.18 31.31 240.43 31.13 242.27 31.25 243.79 29.97 243.75 29.49 245.13 27.74 245.13 26.68 245.55 25.8 248.12 23.44 248.36 22.94 249.08 22.39 249.21 21.61 249.79 21.66 251.02 20.69 248.81 20.11 246.86 18.07 245.59 16.49 244.24 15.97 243.58 16.33 242.18 15.46 241.94 14.4 241.84 13.27 240.75 13.12 238.99 13.27 237.8 12.94 236.47 12.58 235.46 12.45 235.37 13.29 235.91 14.1 234.42 15.39 233.4 15.09 231.9 13.84 230.43 12.8 230.68 12.17 230.9 11.21 230.86 10.77 230.67 10.54 229.06 10.46 227.62 8.9 226.06 8.81 224.58 8.64 223.54 8.78 222.66 7.56 221.22 6.91 220.36 7.84 219.43 9.23 218.45 8.79 218.36 8.71 217.54 8.87 216.41 7.64 215.35 6.04 214.03 5.77 213.94 7.33 213.7 8.95 212.13 9.7 210.08 10.57 208.59 11.26 207.74 12.94 205.47 14.21 204.13 14.8 203.08 15.12 201.96 15.6 200.94 16.22 200.63 17.1 200.36 18.2 199.99 18.32 199.37 17.6 197.74 16.36 197.53 16.9 197.6 18.23 198.85 19.64 200.6 20.26 201.05 21.99 201.14 24.59 202.6 26.39 206.88 29.4 208.41 31.12 209.73 32.22 212.25 33.77 213.01 34.62 214.89 35.23 215.95 36 217.67 35.98 219.33 35.7 220.5 35.05 221.77 33.8 222.12 32.38 222.9 30.93 225.2 30.95 227.73 30.73 229.07 31.22 231.24 32.89 233.5 32.39 236.35 31.83 237.64 33.24"/><polygon points="237.64 33.24 238.39 32.15 239.18 31.31 240.43 31.13 242.27 31.25 243.79 29.97 243.75 29.49 245.13 27.74 245.13 26.68 245.55 25.8 248.12 23.44 248.36 22.94 249.08 22.39 249.21 21.61 249.79 21.66 251.02 20.69 248.81 20.11 246.86 18.07 245.59 16.49 244.24 15.97 243.58 16.33 242.18 15.46 241.94 14.4 241.84 13.27 240.75 13.12 238.99 13.27 237.8 12.94 236.47 12.58 235.46 12.45 235.37 13.29 235.91 14.1 234.42 15.39 233.4 15.09 231.9 13.84 230.43 12.8 230.68 12.17 230.9 11.21 230.86 10.77 230.67 10.54 229.06 10.46 227.62 8.9 226.06 8.81 224.58 8.64 223.54 8.78 222.66 7.56 221.22 6.91 220.36 7.84 219.43 9.23 218.45 8.79 218.36 8.71 216.41 7.64 215.35 6.04 214.03 5.77 213.94 7.33 213.7 8.95 212.13 9.7 210.08 10.57 208.59 11.26 207.74 12.94 205.47 14.21 204.13 14.8 203.08 15.12 201.96 15.6 200.94 16.22 200.63 17.1 200.36 18.2 199.99 18.32 199.37 17.6 197.74 16.36 197.53 16.9 197.6 18.23 198.85 19.64 200.6 20.26 201.05 21.99 201.14 24.59 202.6 26.39 206.88 29.4 208.41 31.12 209.73 32.22 212.25 33.77 213.01 34.62 214.89 35.23 215.95 36 217.67 35.98 219.33 35.7 220.5 35.05 221.77 33.8 222.12 32.38 222.9 30.93 225.2 30.95 227.73 30.73 229.07 31.22 231.24 32.89 233.5 32.39 236.35 31.83 237.64 33.24"/><polygon points="263.28 107.05 263.21 106.11 263.09 102.91 258.09 100.15 255.68 100.13 251.16 94.6 249.89 92.26 242.37 87.87 234.69 80.59 234.48 77.06 237.39 77.21 242.53 74.32 247.6 75.47 250.61 74.65 257.42 72.63 259.67 75.23 262.65 76.51 264.73 76.22 266.75 74.97 267.12 73.18 265.2 73.45 263.02 71.97 259.55 68.52 258.95 63.52 256.91 64 255.1 65.46 253.1 66.27 250.46 66.81 248.06 65.64 246.26 65.32 244.22 63.2 241.99 62.4 239.15 63.57 236.22 63.09 232.95 64.9 231.26 69.03 226.29 74.97 223.85 74.47 219.15 74.11 216.51 74.24 214 75.62 214.39 77.33 215.28 78.63 216.73 81.28 217.56 81.84 218.4 81.6 219.85 78.32 220.68 75.48 222.66 75.91 224.09 77.34 224.55 77.3 225.32 78.14 225.9 79.73 226.1 82.01 227.56 84.48 229.17 85.42 231.05 86.72 229.41 87.25 229 87.98 229.16 88.8 231.12 90.95 232.89 91.88 234.04 92.78 235.88 93.44 236.69 94.84 237.09 95.97 237.79 95.99 239.99 95.55 241.98 95.54 244.91 96.36 247.5 97.83 249.81 99.84 251.26 100.65 251.57 101.37 250.63 101.4 249.63 100.41 247.85 100.26 247.39 100.99 249.49 101.25 252.2 102.48 253.45 102.59 254.89 102.55 258.28 104.33 259.92 105.35 261.42 106 262.16 106.54 263.28 107.05"/><polygon points="263.28 107.05 263.21 106.11 263.09 102.91 258.09 100.15 255.68 100.13 251.16 94.6 249.89 92.26 242.37 87.87 234.69 80.59 234.48 77.06 237.39 77.21 242.53 74.32 247.6 75.47 250.61 74.65 257.42 72.63 259.67 75.23 262.65 76.51 264.73 76.22 266.75 74.97 267.12 73.18 265.2 73.45 263.02 71.97 259.55 68.52 258.95 63.52 256.91 64 255.1 65.46 253.1 66.27 250.46 66.81 248.06 65.64 246.26 65.32 244.22 63.2 241.99 62.4 239.15 63.57 236.22 63.09 232.95 64.9 231.26 69.03 226.29 74.97 223.85 74.47 219.15 74.11 216.51 74.24 214 75.62 214.39 77.33 215.28 78.63 216.73 81.28 217.56 81.84 218.4 81.6 219.85 78.32 220.68 75.48 222.66 75.91 224.09 77.34 224.55 77.3 225.32 78.14 225.9 79.73 226.1 82.01 227.56 84.48 229.17 85.42 231.05 86.72 229.41 87.25 229 87.98 229.16 88.8 231.12 90.95 232.89 91.88 234.04 92.78 235.88 93.44 236.69 94.84 237.09 95.97 237.79 95.99 239.99 95.55 241.98 95.54 244.91 96.36 247.5 97.83 249.81 99.84 251.26 100.65 251.57 101.37 250.63 101.4 249.63 100.41 247.85 100.26 247.39 100.99 249.49 101.25 252.2 102.48 253.45 102.59 254.89 102.55 258.28 104.33 259.92 105.35 261.42 106 262.16 106.54 263.28 107.05"/><polygon points="346.42 71.56 343.74 72.66 339.92 71.39 335.16 71.41 333.89 70.83 330.88 71.54 327.31 73.79 324.29 76.21 321.83 78.86 319.48 80.15 315.44 80.5 312.3 80.64 305.81 82.04 300.24 82.61 298.11 83.02 296.19 81.97 296.73 79.54 294.63 79.25 292.15 80.99 292.36 84.35 293.34 87.67 295.28 89.63 298.11 91.85 296.66 93.97 295.44 98.39 296.1 101.53 296.26 102.31 300.61 104.64 302.54 109.23 303.24 111.94 303.56 112 305.27 111.4 307.86 110.23 311.64 109.46 314.63 107.57 316.32 106.67 318.2 106.34 320.14 107.33 323.02 107.61 326.43 108 329.54 106.51 331.4 104.02 331.29 101.14 333.43 100.54 334.29 99.43 337.49 97.7 339.42 96.06 342.65 97.11 344.9 96.07 346.54 95.49 347.75 95.13 346.72 93.69 345.33 92.72 344.34 91.82 343.3 90.39 342.37 89.53 341.5 89.46 340.85 88.91 341.69 87.84 342.14 86.94 342.36 86.01 343.59 85.13 342.92 82.56 342.43 80.47 343.63 77.73 346.43 76.1 346.72 74.08 346.42 71.56"/><polygon points="346.42 71.56 343.74 72.66 339.92 71.39 335.16 71.41 333.89 70.83 330.88 71.54 327.31 73.79 324.29 76.21 321.83 78.86 319.48 80.15 315.44 80.5 312.3 80.64 305.81 82.04 300.24 82.61 298.11 83.02 296.19 81.97 296.73 79.54 294.63 79.25 292.15 80.99 292.36 84.35 293.34 87.67 295.28 89.63 298.11 91.85 296.66 93.97 295.44 98.39 296.1 101.53 296.26 102.31 300.61 104.64 302.54 109.23 303.24 111.94 303.56 112 305.27 111.4 307.86 110.23 311.64 109.46 314.63 107.57 316.32 106.67 318.2 106.34 320.14 107.33 323.02 107.61 326.43 108 329.54 106.51 331.4 104.02 331.29 101.14 333.43 100.54 334.29 99.43 337.49 97.7 339.42 96.06 342.65 97.11 344.9 96.07 346.54 95.49 347.75 95.13 346.72 93.69 345.33 92.72 344.34 91.82 343.3 90.39 342.37 89.53 341.5 89.46 340.85 88.91 341.69 87.84 342.14 86.94 342.36 86.01 343.59 85.13 342.92 82.56 342.43 80.47 343.63 77.73 346.43 76.1 346.72 74.08 346.42 71.56"/><polygon points="263.09 102.91 258.09 100.15 255.68 100.13 251.16 94.6 249.89 92.26 242.37 87.87 234.69 80.59 234.48 77.06 237.39 77.21 242.53 74.32 247.6 75.47 250.61 74.65 257.42 72.63 259.67 75.23 262.65 76.51 264.73 76.22 264.64 82.84 268.13 87.3 268.92 89.83 266.67 95.29 264.6 95.73 263.09 102.91"/><polygon points="263.09 102.91 258.09 100.15 255.68 100.13 251.16 94.6 249.89 92.26 242.37 87.87 234.69 80.59 234.48 77.06 237.39 77.21 242.53 74.32 247.6 75.47 250.61 74.65 257.42 72.63 259.67 75.23 262.65 76.51 264.73 76.22 264.64 82.84 268.13 87.3 268.92 89.83 266.67 95.29 264.6 95.73 263.09 102.91"/><polygon points="146.01 3.58 145.54 3.54 144.85 2.69 144.24 2.57 142.69 2.63 141.12 3.01 138.98 4.2 137.03 4.67 136.27 4.82 134.65 3.72 134.01 3.38 134.05 3.24 133.06 3.33 131.63 3.76 128.31 5.35 128.3 5.82 128.11 8.14 128.36 9.41 129.82 10.29 131.37 10.23 131.89 11.74 132.44 12.99 133.81 13.48 134.77 14 134.88 14.24 135.7 14.78 137.45 15.54 138.13 16.34 138.37 17.48 138.58 19.84 139.96 20.42 141.35 20.52 142.01 19.54 143 18.46 143.86 18.52 143.94 19.43 143.77 21 143.68 21.86 144.26 22.17 144.32 22.25 143.94 22.97 145.56 24 146.65 25.06 148.15 25.46 149.43 25.26 149.49 23.1 148.95 21.32 149.87 19.55 151.31 18.57 152.24 18.48 153.74 16.28 153.78 15.19 153.14 13.86 152.95 12.66 152.93 12.41 152.24 11.48 150.68 11.39 149.61 10.49 149.4 9.04 149.65 7.55 149.7 6.17 148.63 5.34 147.32 5.24 146.23 4.47 146.01 3.58"/><polygon points="146.01 3.58 145.54 3.54 144.85 2.69 144.24 2.57 142.69 2.63 141.12 3.01 138.98 4.2 137.03 4.67 136.27 4.82 134.65 3.72 134.01 3.38 134.05 3.24 133.06 3.33 131.63 3.76 128.31 5.35 128.3 5.82 128.11 8.14 128.36 9.41 129.82 10.29 131.37 10.23 131.89 11.74 132.44 12.99 133.81 13.48 134.77 14 134.88 14.24 135.7 14.78 137.45 15.54 138.13 16.34 138.37 17.48 138.58 19.84 139.96 20.42 141.35 20.52 142.01 19.54 143 18.46 143.86 18.52 143.94 19.43 143.77 21 143.68 21.86 144.26 22.17 144.32 22.25 143.94 22.97 145.56 24 146.65 25.06 148.15 25.46 149.43 25.26 149.49 23.1 148.95 21.32 149.87 19.55 151.31 18.57 152.24 18.48 153.74 16.28 153.78 15.19 153.14 13.86 152.95 12.66 152.93 12.41 152.24 11.48 150.68 11.39 149.61 10.49 149.4 9.04 149.65 7.55 149.7 6.17 148.63 5.34 147.32 5.24 146.23 4.47 146.01 3.58"/><polygon points="213.01 34.62 212.87 35.8 211.79 36.45 210.45 37.01 209.87 38.22 209.53 39.72 206.36 41.21 205.74 42.95 206.03 45.31 207.14 47.59 207.33 48.74 206.14 49.4 205.42 48.21 203.27 48.32 201.54 47.86 201.01 48.68 197.73 49.19 196.07 49.5 194.72 50.53 193.25 51.52 191.26 51.53 189.23 50.41 187.53 50.33 186.54 51.33 186.1 52.28 185.28 52.74 183.84 52.09 183.03 50.78 181.78 50.45 180.33 50.58 178.78 51.24 179.11 52.52 180.51 53.1 181.02 54.49 180.42 56.24 181.97 57.21 182.51 58.13 184.4 58.53 185.5 57.79 186.23 58.28 186.73 58.63 187.28 58.88 188.61 59.21 189.3 59.15 191.69 58.33 192.65 57.86 194.48 56.92 197.39 56.67 198.88 56.32 199.52 55.73 200.46 55.65 200.87 55.92 200.84 56.62 201.17 57.8 201.81 58.83 202.47 59.38 203.66 59.97 204.35 59.99 205.82 60.94 207.21 61.04 208.69 61.22 210.55 61.22 211.87 61.49 212.59 61.82 213.9 61.84 216.46 61.64 218.85 61.8 219.77 61.88 220.92 61.78 221.29 61.53 222.06 60.82 222.59 59.94 223.22 59.2 224.5 58.62 225.23 58.47 226.62 58.51 227.33 58.76 228.2 58.84 228.85 57.46 229.45 57.35 230.91 57.28 231.76 57.46 232.06 57.43 232.26 56.86 232.26 56.25 233.44 55.45 233.78 54.9 234.81 53.73 236.47 53.11 236.08 51.46 236.04 50.08 236.96 47.31 235.86 46.11 236.36 44.9 237.86 44.6 240.17 44.4 240.75 43.13 240.44 41.47 240.41 40.23 240.3 39.93 239.16 38.26 237.9 35.21 237.64 33.24 236.35 31.83 233.5 32.39 231.24 32.89 229.08 31.22 227.73 30.73 225.2 30.95 222.9 30.93 222.12 32.38 221.77 33.8 220.5 35.05 219.33 35.7 217.67 35.99 215.95 36 214.89 35.23 213.01 34.62"/><polygon points="213.01 34.62 212.87 35.8 211.79 36.45 210.45 37.01 209.87 38.22 209.53 39.72 206.36 41.21 205.74 42.95 206.03 45.31 207.14 47.59 207.33 48.74 206.14 49.4 205.42 48.21 203.27 48.32 201.54 47.86 201.01 48.68 197.73 49.19 196.07 49.5 194.72 50.53 193.25 51.52 191.26 51.53 189.23 50.41 187.53 50.33 186.54 51.33 186.1 52.28 185.28 52.74 183.84 52.09 183.03 50.78 181.78 50.45 180.33 50.58 178.78 51.24 179.11 52.52 180.51 53.1 181.02 54.49 180.42 56.24 181.97 57.21 182.51 58.13 184.4 58.53 185.5 57.79 186.23 58.28 186.73 58.63 187.28 58.88 188.61 59.21 189.3 59.15 191.69 58.33 192.65 57.86 194.48 56.92 197.39 56.67 198.88 56.32 199.52 55.73 200.46 55.65 200.87 55.92 200.84 56.62 201.17 57.8 201.81 58.83 202.47 59.38 203.66 59.97 204.35 59.99 205.82 60.94 207.21 61.04 208.69 61.22 210.55 61.22 211.87 61.49 212.59 61.82 213.9 61.84 216.46 61.64 218.85 61.8 219.77 61.88 220.92 61.78 221.29 61.53 222.06 60.82 222.59 59.94 223.22 59.2 224.5 58.62 225.23 58.47 226.62 58.51 227.33 58.76 228.2 58.84 228.85 57.46 229.45 57.35 230.91 57.28 231.76 57.46 232.06 57.43 232.26 56.86 232.26 56.25 233.44 55.45 233.78 54.9 234.81 53.73 236.47 53.11 236.08 51.46 236.04 50.08 236.96 47.31 235.86 46.11 236.36 44.9 237.86 44.6 240.17 44.4 240.75 43.13 240.44 41.47 240.41 40.23 240.3 39.93 239.16 38.26 237.9 35.21 237.64 33.24 236.35 31.83 233.5 32.39 231.24 32.89 229.08 31.22 227.73 30.73 225.2 30.95 222.9 30.93 222.12 32.38 221.77 33.8 220.5 35.05 219.33 35.7 217.67 35.99 215.95 36 214.89 35.23 213.01 34.62"/><polygon points="106.88 106.89 107.85 108.13 108.24 109.15 109.34 109.39 110.07 109.16 109.86 108.4 109.01 107.48 107.77 107.2 106.88 106.89"/><polygon points="106.88 106.89 107.85 108.13 108.24 109.15 109.34 109.39 110.07 109.16 109.86 108.4 109.01 107.48 107.77 107.2 106.88 106.89"/><polygon points="286.69 121.39 287.3 123 287.67 125.37 285.85 127.66 284.82 130.77 283.43 132.28 283.22 134.29 282.63 135.5 281.36 136.83 281.19 136.76 279.46 136.31 278.92 134.5 277.5 133.1 274.36 132.43 272.4 130.31 271.5 128.86 272.75 128.89 272.55 127.53 271.58 125.31 271.86 123.13 272.12 122.64 271.74 121.06 271.86 119.67 270.86 117.98 270.93 116.98 271.21 115.1 271.64 112.68 270.71 111.93 269.25 111.9 269.78 109.17 269.16 107.45 269.5 105.04 270.54 103.87 271.41 102.18 272.8 103.14 275.11 102.34 277.2 104.14 278.99 104.68 281.5 106.97 280.54 108.06 280.57 110.38 280.75 113.35 281.29 116.08 283.28 119.14 285.14 120.44 286.69 121.39"/><polygon points="286.69 121.39 287.3 123 287.67 125.37 285.85 127.66 284.82 130.77 283.43 132.28 283.22 134.29 282.63 135.5 281.36 136.83 281.19 136.76 279.46 136.31 278.92 134.5 277.5 133.1 274.36 132.43 272.4 130.31 271.5 128.86 272.75 128.89 272.55 127.53 271.58 125.31 271.86 123.13 272.12 122.64 271.74 121.06 271.86 119.67 270.86 117.98 270.93 116.98 271.21 115.1 271.64 112.68 270.71 111.93 269.25 111.9 269.78 109.17 269.16 107.45 269.5 105.04 270.54 103.87 271.41 102.18 272.8 103.14 275.11 102.34 277.2 104.14 278.99 104.68 281.5 106.97 280.54 108.06 280.57 110.38 280.75 113.35 281.29 116.08 283.28 119.14 285.14 120.44 286.69 121.39"/><polygon points="73.14 206.32 73.14 204.99 75.14 203.32 76.8 203.32 76.8 204.82 75.97 207.49 73.14 209.49 69.47 211.32 69.47 209.66 73.14 206.32"/><polygon points="82.47 198 82.47 200.34 81.64 201.67 80.64 202.67 79.47 202.67 78.14 201.34 79.14 200.34 80.3 200.34 81.14 198 82.47 198"/><polygon points="62.8 210.5 61.47 211.67 58.47 211.67 57.47 209.67 58.47 207.67 58.47 206.67 60.14 206 61.8 206 63.64 206 64.47 207.67 62.8 210.5"/><polygon points="57.47 199.67 55.8 202.67 54.14 203.67 52.47 206 51.47 207.67 49.47 206.67 48.3 204.67 48.3 202.67 50.64 202.67 52.89 201.84 54.8 200.34 55.97 199 57.47 199.67"/><polygon points="43.47 203.67 45.14 203.67 46.3 205 45.47 206 43.47 206.67 42.64 205.17 43.47 203.67"/><polygon points="35.47 207.67 37.29 206.76 37.47 206.67 37.47 208.84 35.47 208.84 35.47 207.67"/><polygon points="36.13 195.99 37.8 194.99 39.13 194.99 39.97 195.49 39.97 197.66 39.3 198.66 38.97 199.99 38.05 199.99 37.3 199.99 36.8 198.66 36.13 195.99"/></g><g id="LBGs_Town_Names" data-name="LBGs Town Names"><g id="Dots"><path class="cls-1" d="M267.26,66.6a2.35,2.35,0,0,1-2,2.64,2.31,2.31,0,1,1-.65-4.57A2.34,2.34,0,0,1,267.26,66.6Z" transform="translate(-26.25 2.18)"/></g><g id="Names"><text class="cls-2" transform="translate(173.75 3.02)">Erlangen</text></g><g id="Borders"><path class="cls-3" d="M314.7,1.18C311,6.85,306,11.85,308,18.85c-3.18-1.57,0-3.18,0,0-7-4-15,1-23,1-1,0-2-1-3-2l-1,1c-2-1-5-1-7-1,.08-3.13,2.28-.87,0,0-3-4-8-6-12.29-7.58.44.25.47.31.77.34-.12-.08-.75-.32-.77-.34.93,2.71-1.31,2.86-3.16,1.71-2.38-1.48-1.18-4-4.47-5.18-1.42-.51-2.45.08-3.8,0S247.79,5.12,246.79,5c-1.35-.11-1.93,1.77-3,.14-.67-1-.17-3.36-.12-4.47" transform="translate(-26.25 2.18)"/><polyline class="cls-4" points="217.99 7.27 216.41 7.64 214.03 5.77 213.7 8.95 208.59 11.26 207.74 12.94 200.94 16.22 200.36 18.2 197.74 16.36 197.6 18.23 198.85 19.64 200.6 20.26 201.05 21.99 201.14 24.59 202.6 26.39 208.41 31.12 212.25 33.77 215.95 36 220.5 35.05 222.12 32.38 222.9 30.93 227.73 30.73 231.24 32.89 236.35 31.83 237.64 33.24 239.03 30.73 242.27 31.25 243.75 29.49 245.55 25.8 246.73 24.72 249.21 21.61 251.02 20.05"/><polyline class="cls-3" points="237.64 33.24 237.9 35.21 241.1 40.35 243.17 41.44 246.38 43.33 252.13 42.27 253.72 39.23 255.81 38.35 258.79 36 260.1 35.59 261.89 35.87 264.48 34.66 265.89 34.01 266.26 32.21 268.41 30.55 270.94 30.33 273.81 29.57 277.61 30.99 279.39 29.5 283.59 31.93 285.42 33.47 285.59 35.44 284.7 36.68 283.64 36.86 281 39.33 280.63 41.11 280.39 41.97 280.02 44.54 278.58 46.82 277.65 49.5 276.54 53.15 275.93 56.05 269.48 59.55 267.76 58.9 265.99 59.83 264.2 60.21 262.83 61.39 259.86 62.52 257.64 62.52 255.1 65.46 251.39 66.62 248.06 65.64 245.32 64.35 242.56 62.61 240.75 61.01 239.03 58.9 237.53 58.72 235.75 56.65 234.54 55.44 233.78 54.9 234.81 53.73 236.47 53.11 236.08 51.46 236.23 49.5 236.36 47.25 236.36 44.9 237.11 44.75 240.17 44.4 241.1 40.35"/><path class="cls-3" d="M189.36,47.33l-2.61,1.32-2.06-.28-.69,1,.88.73-2.41,2.2-2,2.31-.9,1.85-1.28,1.19-.27.42-1,1.07-.59,1.8-.33,2.35.56,1.08.75-.59,1-.94,1-1.22,1.24,0,1.46.18.49.26-.12,1.09s0,1.41,0,1.38.32,1.75.32,1.75l1.08.35.32.74-.86.94s-.63-.91-.62-.43a5,5,0,0,1-.17,1.19l.63,1.86.41,1.13.79,2.31.28,1.05-1.76,1.15-1.18,2.32.19,1.07.72.48.73.38.1,1.23-.32,1.76v1.48l.45,1.74.89,1.3.91.23,1.9.17,1.15.2.45,1.63-.22,2.65" transform="translate(-26.25 2.18)"/><path class="cls-4" d="M166.23,1.38c-2,1-3.76,1.87-5.5.05" transform="translate(-26.25 2.18)"/><path class="cls-4" d="M178.49,9.3c-2.7-1.06-2.27-1.72-2.85-4.24-.62-2.7-3-1.08-3.44-3.7" transform="translate(-26.25 2.18)"/><path class="cls-4" d="M154.56,3.17,154.36,6l.26,1.28.72.43.73.44,1.55-.06.81,2.17.26.59,1.37.49,1,.53.93.77.86.38.9.39.67.79.24,1.15a2.21,2.21,0,0,0,0,1.36l.21,1,.57.24,1.16.74,1-.31.66-1,.64-.7,1.21-.32.08.9-.06.62-.11.95h0l.49,1.18-.31.8,1.18.75.89.72.63.62,1.5.39,1.29-.5.06-1.86-.55-1.78.57-1.29,1.91-1.69.81-.59.76-.61" transform="translate(-26.25 2.18)"/><polyline class="cls-4" points="80.39 93.98 81.71 95.8 84.99 99.03 86.73 99.66 88.39 100.98 89.33 102.11 91.25 102.86 93.94 103.87 95.91 104.52 99.01 105.58 100.09 105.57 101.91 104.56 103.37 104.43 104.67 105.09 106.24 106.37 107.77 107.2 109.01 107.48 109.86 108.4 110.98 109.48 112.75 110.44 115.14 110.49 118.6 110.49 121.9 110.5 122.92 110.8"/><polyline class="cls-4" points="107.77 107.2 108.24 109.15 109.34 109.39 110.07 109.16"/><path class="cls-4" d="M41.54,97.58l1.07-.78.75-.54,1.8-.19.78-.09,1.69.12.64,0s-.23,1.68-.2,1.5.2.83.2.83l.72.77.75.06,1.42.13,2.7.85,1.1.43,2-.43.41-.09,2,.52.66.16,2.48,1.08s.16,0,.18.63a3.86,3.86,0,0,0,.37,1.26l.57.94.4.67v.73l-.76,1.09L62,108.73l-1.76,1.1H59l-1.36,1.58-.7,2.14-.35,1.72a5.7,5.7,0,1,0-.25.59l-.69,1.65-.85,1.59-.89,1.24v.88s.28.67.25.61.17,1.79.17,1.79l-1.48,1.67-1.43.48L50,126l-.84.37-.87.38-.07,1.35s0,.29,0,.82a2.74,2.74,0,0,0,.14,1l.53,1.47.13.72.41.7.31.89.07.32-1,1.31-1.7,1.79-.16.56-.19.66-.29,1.37.09,1.38,0,.66.47.84.45.82.29,1.07,0,.76,0,.64-1,.83-2.63,1.37-1.12.65-1.41,1.07-.11.74v.57l-.17.56V154l-.06.77" transform="translate(-26.25 2.18)"/><polyline class="cls-4" points="157.99 70.5 160.5 70.14 161.94 69.77 163.14 69.61 165.14 69.73 165.7 69.13 167.42 67.6 167.38 66.21 168.36 65.05 170.06 64.16 170.54 66.07 170.93 67.15 172.64 68.38 173.23 69.13 173.6 69.6 174.66 70.28 174.86 69.13 175.39 68.14 175.96 67.01 176.9 65.16 176.9 64.16 177.31 63.52 178.4 64.03 179.34 64.87 181.12 64.96 181.89 64.74 182.63 64.74 184.24 65.52 184.49 64.88 184.02 64.01 183.84 62.87 184.09 61.93 185.77 61.78 186.42 61.34 186.39 59.41 187.28 58.88 189.3 59.15 190.03 58.9 191.69 58.33 192.65 57.86 193.59 57.38 194.48 56.92 197.39 56.67 197.75 56.58 199.52 55.73 200.46 55.65 200.84 56.62 201.17 57.8 202.47 59.38 203.66 59.97 204.35 59.99 206.21 60.97 207.21 61.04 209.76 61.22 211.87 61.49 213.9 61.84 212.42 63.35 212.12 65.24 213.12 65.29 212.99 66.32 212.97 67.63 213.39 68.36 213.84 69.71 214.94 70.31 215.43 70.48 216.43 71.48 216.43 71.97 216.23 73.27 215.39 73.48 214.77 73.09"/><path class="cls-4" d="M213,56.45l-1.24-.83-1.1.73-.66-.14L208.76,56a4.88,4.88,0,0,0-1.43-1.49l-.65-.4.27-.81.33-.94-.52-1.39-.86-.36L205,49.06" transform="translate(-26.25 2.18)"/><path class="cls-3" d="M179.13,1.09C177,4.85,180,8.85,179,12.85c0,4,1,7,1,11,1,1,2,3,3,4,3,0,8,1,9,3,3,5-7,11-1,17,7-1,15,1,22,1,1,0,2-1,4,0,5,0,10-5,15.39-1.63,1.15-2.06-.66-2.66,0,0,.61-1.37,1.61-3.37.61-4.37s-2-2,0-4a3.67,3.67,0,0,1,3-1c-1-2,1-3,3.7-5.19" transform="translate(-26.25 2.18)"/><polyline class="cls-3" points="214 75.62 215.79 74.64 217.81 74.05 220.76 74.64 223.08 74.64 225.18 75.11 226.29 74.97 227.54 73.48 228.98 71.3 231.26 69.03 232.09 67 233.18 64.09 236.22 63.09 238.17 63.41 239.15 63.57 240.99 63.28 241.4 62.64 242.56 62.61"/><path class="cls-3" d="M279.86,63.89l2.61-1.5h2.73l.5,3.13s0,1.21.72,1.44,2.32,2.3,2.32,2.3l2.72,2,1-.23.91,0L293,72.8l-4.1,1.53-.75-.32-2.22-1-2.25-2.6-2,.59-4,.83-3.8,1.42-5.06-1.15L263.64,75l-2.91-.14a4.46,4.46,0,0,1,.4,2.36,2.29,2.29,0,0,0,1,2.31l3.16,3,2.74,2.6,3.53,2.27,4.56,2.67,3,4.49L281.93,98l2.42,0,5,2.76,1.51-7.18,2.06-.44,2.26-5.46-.8-2.53-3.53-5.57.11-4.31.31-1.8" transform="translate(-26.25 2.18)"/><line class="cls-3" x1="263.28" y1="107.05" x2="262.83" y2="102.77"/><path class="cls-3" d="M294.24,90.29,297,91.54l5.29,3.69-1.19,2.18.1,1,.16,1.79-.91.32-1.4.49-1.38-1-.5,1.35L296,102.64s-.19.13-.3.87-.25,1.76-.25,1.76l.41,1.12a2.39,2.39,0,0,0,.15.92,9.8,9.8,0,0,1-.47,2.41" transform="translate(-26.25 2.18)"/><path class="cls-3" d="M294.86,57.51l3.26,1.24L300,60.36l1.77,2.86.53,1.22,1.34,1.49.5.52,1.48.08,1.07.37.52.22.87,1.06.44,1.41s-.59,1-.07,1.27l.79.39a4.33,4.33,0,0,1,.76.33c.23.15,1.2.64,1.2.64h1.62l2.36.54.68.22,1.54-1.77a5.81,5.81,0,0,0,1,1.25l.41.26-1.29,2,.88,1.14A10.56,10.56,0,0,0,319.71,77l1.17.07,1.84.25.22.23-.49,2.24,1.92,1,3.57-.56,3.3-.5,2.51-.28,2.58-.56,2.59-.49,3.25-.17,1.92-.16,1.65-.15,2.35-1.28,1.35-1.47.78-.84,2-1.66L354,71.31,356.12,70l1.62-.78,1.8-.56h.61l1.27.58h1.89l2.87,0,3.52,1.17,3-1" transform="translate(-26.25 2.18)"/><path class="cls-3" d="M320.36,77.44l-1.18.83-.78.55v.94l.13,1.54s.32,1.68.39,1.91.68,2.28.68,2.28l1,1a11.88,11.88,0,0,1,1.36.89c.25.25,2.44,2.32,2.44,2.32l-2,4-.33,1.19a8,8,0,0,0-.3,1.71c.06.32.26,1.25.42,2l.32,1.55,1.85,1,2.16,1.15c.35.18,2,4.18,2,4.18l1,3.3,4.27-1.54,2.13-.53,1.59-.32,2.73-1.56,2.45-.87,1.79-.77,2.46.77,2.35.49,2,.23,1.47.17,2.55-1.23,2.41-2.75L357.54,99l1.78-.5,1-1.06,3.41-1.88,1.93-1.64,3.41,1,2.74-1.19L374,93" transform="translate(-26.25 2.18)"/><polyline class="cls-3" points="281.36 136.83 282.63 135.5 283.26 133.84 283.43 132.28 284.82 130.77 285.85 127.66 287.67 125.37 287.3 123 286.69 121.39 292.53 119.58 294.04 117.51 296.83 115.8 299.93 115.17 302.21 112.5 303.24 111.94"/><polyline class="cls-3" points="279.39 29.5 279.56 26.62 280.07 23.69 280.3 21.2"/><path class="cls-3" d="M311.68,31.29c4.32-.44,8.32-.44,12.32-2.44,2,0,4,2,6,1a21.86,21.86,0,0,1,5-3c2-2,4-3,6-5,1-1,4,0,5,1,7,8,15,15,16,25.64-.16-.18-.39-.4-.56-.63,2.53,6,8.53,3,12.08.14" transform="translate(-26.25 2.18)"/><path class="cls-4" d="M373.23,33.67C371,32.85,371,30.85,370,28.85c-3-5-10-13-16-6-2-2-4-1-7,1" transform="translate(-26.25 2.18)"/><path class="cls-4" d="M311.68,31.29A116.21,116.21,0,0,0,326,28.85c1,0,3,2,4,1,3-3,7-4,10-8,1-1,5,0,6,1,4,5,9,8,12,13,2,5,4,10,4.94,15,1.69-1.38-.4-2.57,0,0,2.06,0,4.06,1,5.06,1,3-4,1-10,6.19-14.31" transform="translate(-26.25 2.18)"/><path class="cls-5" d="M374.19,48l-.69,0-1.8,1.13-2.16,1,4.66-1.74C374.19,48.25,374.19,48.12,374.19,48Z" transform="translate(-26.25 2.18)"/><polyline class="cls-4" points="286.69 121.39 285.14 120.44 283.28 119.14 281.29 116.08 280.57 110.38 280.54 108.06 281.5 106.97 278.99 104.68 277.2 104.14 274.19 102.66"/><polyline class="cls-4" points="295.93 100.75 287.45 103.23 284.48 107.44 281.5 106.97"/><polyline class="cls-4" points="213.9 61.84 217.76 61.73 220.92 61.78 222.59 59.94 224.5 58.62 228.2 58.84 229.45 57.35 232.06 57.43 233.78 54.9"/><polyline class="cls-4" points="333.07 100.65 334.57 101.32 335.92 102.25 336.01 104.36 334.77 106.4 335.26 109.42 334.96 111.56 334.09 113.59"/></g><rect class="cls-6" x="0.08" y="188.91" width="88.77" height="0.3"/><rect class="cls-6" x="130.14" y="179.49" width="0.3" height="39.2" transform="matrix(0.62, -0.78, 0.78, 0.62, -132.85, 178.94)"/></g><text class="cls-7" transform="translate(110.68 118.11)">Ba<tspan class="cls-8" x="2.05" y="0">r</tspan><tspan class="cls-9" x="2.68" y="0">c</tspan><tspan x="3.57" y="0">elona</tspan></text><path d="M205-.06c-2.35.07-4.71.12-7.06.16V3.17h20.71V.3C214.07.23,209.52,0,205-.06Z" transform="translate(-26.25 2.18)"/><rect x="234.48" y="65.53" width="7.94" height="7.94"/></g><g id="dotpalma"><circle id="_eclipse_" data-name="&lt;eclipse&gt;" class="cls-1" cx="115.63" cy="143.95" r="0.75"/><circle class="cls-1" cx="120.17" cy="117.37" r="0.74"/><circle class="cls-1" cx="4.44" cy="136.45" r="0.74"/><text class="cls-10" transform="translate(108.07 144.7)"><tspan class="cls-11">P</tspan><tspan x="1.01" y="0">alma</tspan></text></g><g id="city"><text class="cls-7" transform="translate(5.75 137.2)"><tspan class="cls-12">C</tspan><tspan x="1.15" y="0">ascais</tspan></text></g></svg>